<svg version="1" xmlns="http://www.w3.org/2000/svg" width="1864" height="1864" viewBox="0 0 1398.000000 1398.000000"><path d="M982.5 69.2C972 77.4 933 156.2 933 169c0 2.6.8 3.2 9.6 7.4 5.3 2.5 10 4.3 10.5 4 .5-.3 1.6-3.1 2.5-6.2 6.4-22.9 7.7-26.3 11.6-29.6 3.8-3.3 12-6.6 16.3-6.6 4.2 0 5 2.4 5 14.4-.1 11.8-2 20.6-7 32.6-1.4 3.3-2.5 6.6-2.5 7.3 0 1.4 18.5 10.7 21.3 10.7 2.2 0 7.3-13.9 9.3-25.2 2.3-13.4 1.3-28.7-3.1-45.9-.6-2.6-.2-2.9 11.4-8.9 6.6-3.4 14.6-8.3 17.7-10.9 6-4.8 12.4-12.3 12.4-14.5 0-1.3-14.6-8.6-17.1-8.6-.6 0-4.2 2.9-8 6.4-8.5 8.1-19.3 15.4-31.1 21.1-9 4.4-13.1 5.4-14.3 3.6-1.8-3 9.9-23.5 20.9-36.4 3.1-3.7 5.4-7.2 5.1-7.7-.5-.7-17-9-18-9-.1 0-1.5 1-3 2.2zM548 77.1c-1.4 1.1-4.2 3.1-6.2 4.5-2.1 1.3-3.8 3-3.8 3.8 0 2.4 3.5 4.4 9.1 5 4.5.6 5.8 1.2 6.6 2.9.9 2 1.6 2.2 8.4 2 7.5-.2 6.6.6-2.4 2.2-3.5.6-3.8.8-2.4 2.3 3.5 4.2 3.3 4.5-2.4 3.8-2.9-.4-7.2-1.2-9.4-1.8-3.3-.9-5.9-.7-14.5 1.1-13.9 3-13.3 2.7-12.1 5 .8 1.3 2.6 2.1 6.3 2.5 10.5 1.3 19.5 2.8 27.8 4.8 4.7 1.1 15 2.5 23 3.2 15.6 1.4 16.1 1.6 59 15.3 12.9 4.1 24.9 8.3 26.5 9.2 2.6 1.5 4.3 1.6 12 .9 5-.5 9.4-1 9.8-1.1.7-.2-8.9-3.3-32.8-10.4-4.4-1.4-10.7-2.9-14-3.4-3.3-.6-6.9-1.6-8-2.3-2.4-1.5-17.4-5.1-29.7-7-7.8-1.3-9.1-1.8-12.3-5-1.9-2-4-3.6-4.5-3.6-.6 0-1-.6-1-1.4 0-1.5 2.1-2.6 5.1-2.6 1.1 0 2.7-.5 3.7-1.1 1.8-1.1 10.5.9 34.3 8.1 12.6 3.8 12.9 2.1.6-4.1-4.4-2.2-8.7-4.9-9.5-6-2.1-3.1-7.2-5.1-12.9-5.3-4.4-.1-5.5.3-6.8 2.1-.9 1.3-2.1 2.3-2.7 2.3-1.9 0-14.2-5.1-15.7-6.5-2.5-2.4-.2-3.7 5.3-3l5.1.6-8-4.5c-4.4-2.5-8.7-4.6-9.6-4.6-.9 0-4.7-2.3-8.5-5-7.5-5.5-9.7-6-13.4-2.9zM500.5 87.4c-28.5 8.3-62.5 18.9-62.1 19.3.4.4 61.9-17.5 75.6-22 13.2-4.4 5.1-2.7-13.5 2.7z"/><path d="M517.8 95.7c-1.2 3.3-2.1 4-6.3 5.1-8.3 2.2-4.4 2.2 8.3-.1 12.8-2.3 16-4 6.7-3.6-6.3.3-7.1-.1-5.5-3 .8-1.7.8-2.1-.3-2.1-.8 0-2.1 1.7-2.9 3.7zM589 96.1c0 .5.9.9 2 .9s2-.2 2-.4-.9-.6-2-.9c-1.1-.3-2-.1-2 .4zM542 97.9c-3.8.5-4.1.7-2 1.3 1.4.4 5.2.1 8.5-.7 5.4-1.2 5.6-1.3 2-1.2-2.2 0-6 .3-8.5.6zM687.7 105.3l-5.9 2.9 3.7 3.3c2 1.9 5 3.7 6.8 4 3.5.8 5.7 2.2 5.7 3.7s-6.7 0-12.6-2.8c-3.4-1.6-7.7-2.6-13-3-4.3-.3-10-1.4-12.6-2.5-2.6-1-6.5-1.9-8.8-1.9h-4.2l5.4 4.5c7.6 6.4 14.7 9.9 28.3 13.9 15.8 4.8 16.2 5 28.7 11.8l10.8 5.9 17.2 1.9c9.5 1.1 19.6 2.3 22.3 2.7 4.6.6 4.9.5 3.6-1.1-.8-.9-2.5-3.9-3.7-6.7-3.5-7.5-9.2-15.7-13.1-18.6-3-2.3-7.6-4.2-28.3-11.4-3-1.1-8.3-3.3-11.8-5-9.8-4.8-11.8-5-18.5-1.6zM485.1 109c-35 9-66.2 19.2-93.1 30.7-59.2 25.2-107 54.4-157.5 96.2-32.3 26.7-48.6 45.6-109 126.1-30.8 41.2-40.6 53-43.7 53-4.8 0 10.1-31.4 29.8-62.8 4.6-7.3 8-13 7.5-12.7-1.7 1-23.9 35-32.7 50-11.9 20.3-29.6 55.7-37.3 74.5C15.2 546.2 1.8 612.4 1.7 697.5c0 85.7 14.1 159 46.2 240.1 8.2 20.8 29 63.3 41.1 83.9 58.2 99.1 147.1 184.1 249.6 238.7 76.4 40.7 155.4 65 237.9 73.2 81 8.1 163 1.1 236.7-20 17.7-5 41.7-13.1 58.6-19.8l10.6-4.1.9-4.3c1-4.9 2.5-5.5 3.4-1.2.5 2.5.9 2.9 2.7 2.4 1.1-.4 2.2-.7 2.2-.8.1 0 .4-3.9.5-8.6.3-7 .1-9.1-1.4-11.4-1.2-1.7-2.4-2.5-3.4-2.2-.9.4-1.7-.1-2-1.4-1-3.6-2.5-2.2-1.8 1.7.5 3.1.2 4-1.4 5-1.9 1.2-2.1.9-3.1-3-.7-2.3-1.9-5.3-2.8-6.7-1.4-2-1.7-5.1-1.7-16 0-13.4-.1-13.7-3.3-20.1-1.8-3.5-5.1-8.6-7.3-11.2-5.4-6.3-7.5-6.2-16.7.7-7.4 5.6-12.9 7.8-14.2 5.6-1-1.6-4 0-7.4 4-1.4 1.7-4.6 3.8-7.1 4.6-2.5.9-4.7 2-5.1 2.5-.3.5-1.2.9-2 .9-3 0-1.1-3.4 6.1-11 4.1-4.3 7.5-8.4 7.5-9 0-.6-1.7-.2-4 1-5.6 2.9-6.2 2.6-5.8-2.2.3-4.1.2-4.3-2.7-4.7-1.6-.2-6.7.3-11.2.9-9.7 1.5-11.6.8-15.9-6.6-3.2-5.4-10.2-26-11.1-32.3-.5-3.9-1.5-5.4-7.7-11.3-5.1-4.9-6.7-7.1-6-7.8.8-.8 2.2-.7 4.9.4 2.1.9 4 1.4 4.2 1.2.2-.2-1.9-2.1-4.8-4.2-5.1-3.9-7.6-6.3-14.5-13.8-3.1-3.5-3.4-4.2-2.5-6.8.8-2.2.7-3.6-.1-5.1-.6-1.2-1.4-3.5-1.8-5.2-.4-2-2.6-4.6-7-8.3-3.6-2.9-9.3-7.7-12.6-10.5-3.4-2.9-7.5-6-9.2-6.9-1.9-1-3.4-2.8-3.8-4.5-.4-1.5-3.3-5.7-6.6-9.3-3.3-3.6-7.2-7.9-8.8-9.6-1.5-1.7-8.1-7.5-14.6-13-14.1-11.6-22.4-19.9-22.4-22.1 0-1.4.3-1.4 2.3.3 7.6 6.8 16.4 14 24.2 19.9 5 3.7 12.4 9.8 16.5 13.5 5.5 4.9 9.6 7.6 15.2 9.9 4.2 1.8 8.1 3.8 8.7 4.5.6.7 2.9 2.1 5.2 3.1 2.2 1.1 5.5 3.3 7.2 5 2.1 2.1 5.9 4.1 11 5.8 4.3 1.4 9.1 3.7 10.8 5.1 1.7 1.5 3.7 2.6 4.5 2.6 1.3 0 1.3-.3 0-2.2-.9-1.2-1.6-2.6-1.6-3 0-1.5 5.1-.8 11 1.6l6 2.4 1-3.6c.6-2 2.6-13.5 4.6-25.5 5.5-33.6 11-54.1 19-69.9 2.5-5 3.6-8.8 4.4-15.5 1.6-14.3 1.3-28.5-.8-34.6-1.8-5-1.8-5.3 0-8.2 4.3-7.2.6-27.5-10.2-54.8-5.8-14.7-7.8-19.2-20.8-46L769.1 819l-9.8-9.8c-5.4-5.3-11.7-11.4-14-13.4-5.7-5.1-20.6-35.1-22.2-44.9-1.4-8.2-1.4-14.6-.1-15.4.6-.3 1-1.1 1-1.6 0-.6-.4-.8-.9-.5-1.4.9-2.1-2.1-2.1-9.4 0-3.8-.7-10.4-1.5-14.7-.9-4.3-2.2-13.4-3-20.3-.8-6.9-2-16-2.6-20.3-1-6.2-1-9.5 0-15.6 1.5-9.3.7-18.1-2.1-21.6-1.1-1.4-5.3-3.7-10.4-5.7-8.2-3-13.4-6.5-13.4-8.8 0-1.8 4.1-1.1 10.4 1.9 7.1 3.4 11.6 3.3 11.6-.3-.1-3.6-2-15.9-3.2-19.8-1.4-4.7-3.8-5-7-.7-3.1 4.1-5.7 6.8-10.7 10.7-2.2 1.8-4.1 4.1-4.1 5.1 0 1.3-1.3 2.1-5.1 2.9-6.9 1.6-7 1.6-6.3-1.4.6-2.4.5-2.6-1.7-1.9-5.4 1.7-12.3 8.5-18.8 18.3-12 18.5-20.7 28.8-23.6 27.9-2-.7-1.6-4.9.8-8.6 1.3-2 5.8-7.2 9.9-11.6 4.1-4.4 8.8-10 10.4-12.5 1.7-2.5 5.2-7.5 7.8-11.3 3.9-5.6 4.5-6.8 3.1-7.3-.9-.4-1.7-.5-1.8-.3-4.2 6.4-6.4 9.1-8.4 10.4-3.9 2.6-3.8 1.1.5-5.2 2.2-3.2 4.6-7 5.2-8.4.7-1.5 3-3.7 5.3-4.9l4-2.3-.6 3.1c-.8 4 .8 4.1 2.8.2 2-3.8 1.9-4-1-4-1.4 0-2.5-.4-2.5-.8 0-2.9 13.6-19.9 27-33.8l8.8-9.1 2.2-11.9c1.1-6.6 3.7-16.5 5.6-22.2 2-5.7 3.3-10.6 2.9-11-.3-.3-2 0-3.8.7-1.8.8-4.7 1.6-6.5 1.8-3 .5-3.3.3-3-1.7.1-1.3 1-2.6 1.8-3 7.3-3.4 9.6-4.8 12.8-7.7l3.7-3.3-3.3 1.1c-1.8.6-3.6.9-3.9.5-.9-.9 2.7-4.5 7.4-7.3 2.3-1.3 5.5-4.5 7.3-7.3 1.7-2.7 3.8-5.4 4.5-6 1.3-1 8.5-15 8.5-16.3 0-1.9-24.7 8.2-40.2 16.4-2.5 1.3-7 1.1-6.6-.2.4-1.2 24.3-14.1 42.8-23.1 5.8-2.8 11.8-6 13.4-7.1 1.5-1.1 4.1-2.1 5.6-2.3 1.6-.2 9-3.5 16.4-7.4 7.5-3.8 14.2-7 14.9-7 .6 0 2.6-1.1 4.2-2.5 2.6-2.1 2.7-2.4 1-2.5-1.1 0-4.5.7-7.5 1.5-6.5 1.7-10 1.9-10 .5 0-1.9 9-7.4 14.3-8.7 2.8-.8 7.9-2.7 11.2-4.3l6-2.8-4.4-.1c-2.6-.1-6.2.8-8.8 2-2.3 1.1-5 1.9-5.9 1.7-1.3-.2-1-1.1 1.5-4.4 4.3-6 1.8-7.5-4.5-2.8-1.9 1.5-3.7 2.4-4.1 2.1-1.6-1.6 6.4-14.1 15.9-24.9 5.7-6.5 13.6-16.5 17.6-22.4 6.6-9.4 7.3-11 6.8-13.9-1-5.1-7.5-14-17.3-23.7l-8.8-8.7-15.5-6c-17-6.6-28.2-12.6-36-19.1-4.7-4-6.8-7.9-3.5-6.6 4.3 1.6-.6-3.7-10.5-11.3-3-2.3-6-5.7-6.8-7.4-1.9-4.6-4.2-6.7-7.1-6.7-1.6 0-4.5-1.6-7.6-4.3-6.5-5.5-10.9-8.5-14.1-9.7-4.7-1.8-22.2-4-31.9-4-11.3 0-12 1-5.3 7.2 4.6 4.3 4.4 5.3-1.7 6.1-6 .8-16.3-4.4-18.8-9.6l-1.9-3.7-8.1-.1c-4.5-.1-8.6 0-9.2.1-4.6 1-7.8 1.1-10 .6-2.2-.6-2.5-.9-1.5-2.1.9-1.1 3.4-1.5 9.4-1.4 8.9 0 16.7-1.7 24.1-5.4l4.8-2.5-5.7-1.6c-3.3-1-5.6-2.2-5.6-3 0-2.7 6.7-3.6 7.6-1.1.8 2 1.9 1.9 5.2-.4 1.5-1 8.2-2.8 15.5-4.2 10-1.9 12.7-2.7 12.7-4 0-4.1-12.2-10.2-23.9-11.8-4.6-.7-11.3-2.2-14.9-3.3-7-2.1-6.2-2.2-31.2 1.3-96.4 13.5-186.9 54.1-264.5 118.5-14.9 12.4-47.1 44.2-59.7 58.9-19.7 23.1-41.6 54-56.3 79.5-15.2 26.2-31.9 63.4-41.6 92.3-2.3 7-4.4 12.5-4.6 12.3-.7-.7 6.5-37.1 9.8-49.5 9.4-35.2 26.5-76 42.1-100.1 7.5-11.7 7.3-11.4 5.9-10.5-.8.4-.7-.4.4-2.4.9-1.8 2-2.9 2.5-2.6.5.3 2.3-1.5 4-4 1.7-2.5 2.9-4.5 2.6-4.5-.3 0-1.8 1.8-3.2 4-1.5 2.2-2.9 3.8-3.2 3.5-.7-.7 15.3-24.1 25.3-37 26.8-34.4 60.6-67.9 94-93 13.7-10.3 46.1-31.3 43.4-28.2-.3.4-6.7 4.7-14.2 9.6-30 19.7-55.2 40.7-83.8 69.7-17.9 18.3-40.7 45.5-52.8 63-7.1 10.4-5.3 8.5 4.9-5.1 22.1-29.4 47.2-56.5 72.5-78.4 6.6-5.7 24.6-19.8 40-31.4 27.3-20.4 50.5-38.6 50.5-39.4 0-.9-21.4 11.7-37.5 22.2-14.4 9.3-15 9.5-8.5 3.5 22.4-20.8 60.6-48.3 91.8-66 7.2-4.1 13-7.6 12.8-7.8-.6-.5-24.9 9.5-40.6 16.8-78.1 36.5-145 89.1-199.6 157.2-45.7 56.8-78.8 121.1-101.8 197.1-12.5 41.1-13.7 46.9-18.6 87.2-3.6 29-4.9 37.5-6 37.5-1.4 0-2-4.4-2-15.5.1-19.9 3-43.2 9.2-73 6.8-32.7 13.5-65.8 14.2-70.5.5-3.7-.3-2.3-4.7 7.6-8.4 19-12.5 25-14.7 21.5-2.4-4.1 11.8-48.8 24.6-77.5 3-6.6 5.2-12.1 5-12.3-.5-.5-11.7 24.2-16.7 36.7-7.3 18.4-24.8 68.1-28.4 80.5-4.8 16.8-9 38.6-12 62-1.4 11.3-3.6 23.7-5 28.5-3.1 10.1-4.4 23.3-4.5 43-.2 85.1 19.2 169.3 57.2 249 44 92 115.5 173.9 202.8 232.1 67.9 45.3 153.7 78.5 234.5 90.8 25.7 3.9 58.3 6.4 99 7.5 6.6.2-1.9.2-19 0-39.4-.3-64.7-2.6-99.3-8.9-44.6-8.2-103.7-27.5-146.2-47.7-86.1-41.1-160-102-218.7-180.3C136.8 989.7 103 919.1 83.6 846 65 776 60.3 698.1 70 621c5.6-45 17.7-91.4 36-138.5 7.4-19.2 27.6-60.6 39-80 34.5-58.8 77.2-108.8 132.1-154.7 32.1-26.8 61.7-46.6 100.4-67.2 9.9-5.3 17.7-9.6 17.2-9.6-1.2 0-28.5 13.8-41.4 21.1-48.5 27.1-92.5 60.9-132.8 102-50.7 51.7-82.5 96.3-118.2 165.6C91.6 480.5 89 484.8 89 482c0-1.9 4.9-13.7 12.2-29 3.7-8 6.1-13.6 5.2-12.5-3.2 4.1-19.5 38.6-26.2 55.6-24.3 61-36.1 121.5-37.9 193.4-1.6 66.9 7.6 130.3 28.3 193.6 28.6 87.6 71.1 159.6 134.7 228 20.2 21.7 32 31.3 129 103.8 35.9 26.8 65.8 49.5 66.6 50.5.8.9 1.2 1.9.9 2.1-1.4 1.4-128.6-82.3-147.3-97-50.5-39.7-94.7-87.6-128.8-139.6-19.3-29.4-41.4-71.7-53.7-102.6-40.1-101.2-51.7-201.7-35.9-310.7 6-41.5 17.6-84.2 34.1-125.6 10.8-26.8 17.2-39.6 31.9-63 41.2-65.5 43.7-69.6 42.1-68.6-.6.4-5.8 6.6-11.5 13.9-21.4 27.1-38.7 52.1-61.6 88.9C60.1 481 56 486.7 56 484.5c0-1.2 14.1-27.9 24.3-46 41-72.9 75.3-118.6 126.8-169 35.2-34.4 81-69.3 122.9-93.5 15.9-9.1 54.2-28.1 72.9-36 23.4-9.8 64.6-22.9 98.9-31.2 2.9-.7 5.4-1.8 5.5-2.3.4-2.1-7.5-1.2-22.2 2.5zm61.3 131.5c.3.8 1.8 2.1 3.3 2.7 6.5 2.7 7.8 6.1 4.7 12-1.7 3.2-1.2 3.2-11 1-5.4-1.2-6.1-1.7-6.9-5.2-.9-4.1 3.7-12 7-12 1.3 0 2.5.7 2.9 1.5zm120.7 10.1c1.2 1.5 1.1 1.9-.9 3.2-1.2.8-2.2 2.5-2.2 3.8 0 2.6-3.2 6.4-5.3 6.4-2.5 0-5.7-3.1-5.7-5.6 0-3.1 3.3-6.4 6.4-6.4 1.3 0 2.9-.7 3.6-1.5 1.6-1.9 2.4-1.9 4.1.1zm-131 7c3.5 3.3 8.4 4.4 17.3 3.7 7-.5 7.2-.5 8.4 2.1 2.4 5.2 1.3 11.6-2 11.6-1.4 0-2.6 1.5-4.2 5.2-1.3 2.9-2.3 5.4-2.2 5.6.2.1 2.3-.1 4.7-.4l4.5-.6 1.4-6.2c2-8 4.7-9.6 17-9.6 9.5 0 15-1.9 19.7-6.7 5.2-5.2 15.3-2.9 15.3 3.5 0 2.9-3.5 7.2-5.8 7.2-.9 0-2.3.7-3.2 1.5-.9.8-4.3 2-7.6 2.6-9.8 1.8-9.8 4.2.2 5.4 3.5.5 6.1.2 8.8-.9 5.1-2.1 8.3-2 11.3.4 1.8 1.4 4.1 2 7.5 2 6.7 0 11.6 2.2 12.4 5.6 1.4 5.4-4.1 9.3-11.1 7.7l-4.1-.9 1.4 4.2c2 6.2.4 26.4-2.5 30.2-2.6 3.5-5.4 3.9-8.7 1-3.4-2.9-4.5-7.8-4.6-19.8 0-7.6-.4-10.1-2-12.7-2.9-4.8-4.6-5.3-13.1-4.1-4.1.6-7.5 1.2-7.7 1.3-.2.2-1.4 5.6-2.7 12.1-2.5 12-5.7 20-8.6 21.7-2.9 1.8-6.9-.1-8.5-4-1.1-2.6-1.8-3.3-2.6-2.5-.7.7-1.7.8-2.8.2-1.5-.8-1.9-.4-2.4 2.5-1.1 5.7-8.1 9.6-11.4 6.3-1.6-1.6-1.5-8.7.3-11.8 1.8-3.1 2-11.9.3-12.4-.7-.3-4.1-.7-7.4-1l-6.1-.5-.5 10.2c-.4 7.1-1.3 12.6-3.1 18.2-1.5 4.3-2.5 8-2.4 8.1 1.2.9 6.9 3.4 7.9 3.4.7 0 2.3-1.7 3.5-3.9 4.4-7.7 12.3-7.5 13.7.3.6 3.1 1.1 3.6 3.4 3.6 1.6 0 3.3.5 4 1.2 1.6 1.6 1.5 6-.3 8.4-2.1 2.8-1.8 5 1 6.8 2.3 1.5 2.5 1.5 2.5-.1 0-1 1.1-3.6 2.3-5.9 3.9-6.6 3.9-8.2.6-8.9-6.4-1.4-4-11.5 3.3-14 3.3-1.1 4.1-1 8.5 1.3 3.9 2 6.7 2.6 15.3 3 11.7.5 14 1.6 14 6.4 0 2.4-.6 3.2-3.5 4.4-2 .8-4 1.2-4.6.9-.5-.4-4.4-1-8.7-1.5-4.2-.4-8.5-1.1-9.6-1.5-1.6-.7-1.7-.6-.7 1.3.8 1.6.9 2.8.1 4.2-.9 1.8-.4 2.3 5.7 5 3.7 1.7 7.2 2.9 7.7 2.7 1.5-.6 6.2 1.9 12.2 6.5 4.9 3.7 8.4 4.9 8.4 2.8 0-.6-1.1-1-2.4-1-2.8 0-7.6-5.1-7.6-8 0-3.3 2.2-3.4 4.9-.2 1.4 1.6 4 3.7 5.8 4.6 2.4 1.2 3.2 2.3 3.5 4.8.3 3.2.5 3.3 5.4 3.9 6.5.8 11.7 3.3 15.3 7.4 6.1 7 4.4 21.5-2.5 21.5-2.1 0-2.3.2-1.3 1.8.7 1.1.9 3.1.5 4.5-.6 2.5-1.1 2.7-5.7 2.7s-4.9.1-3.9 1.9c1.5 3 1.2 7.3-.9 10-1.4 1.8-2.7 2.4-5.2 2.2-4.7-.3-5.9-.3-9.6.5-1.8.3-5.4-.1-8.5-.9-7.7-2.3-20.8-4.9-24.4-4.9-1.7 0-6.8 1.3-11.3 2.8l-8.3 2.8-7.2-1.6c-16.9-3.9-21-5.4-22.8-8.4-2.3-3.8-2.3-6.7.2-8.9 1.7-1.5 3.1-1.7 8.6-1.2l6.7.6-1.9-2c-3.1-3.5-2.5-12.9 1.5-20.7 1.8-3.5 3.1-6.8 2.9-7.4-.6-1.6-12.8 12.7-19.1 22.2-9.7 14.9-12.5 16-18.9 7.5-2.1-2.8-3.8-5.7-3.8-6.5.1-2.1 11.4-14 13.3-14 .8 0 6.3-4.4 12.2-9.7 9.5-8.6 13.5-13.4 13.5-16.1 0-1.9-11.8-3.6-16.8-2.4-8.9 2-12.5-2.2-7.7-9.2 2.4-3.6 2.5-4 1-6.2-2.2-3.4-1.9-6 1.5-11.8 3.6-6.3 4.6-11.8 3.1-17.4-1-3.5-1.6-4.2-3.6-4.2-1.4 0-2.5-.5-2.5-1 0-.6-1.5-.9-3.2-.8-2.8.3-3.4-.1-3.6-2-.5-3.6 1.6-7.8 5.5-10.8 4.4-3.3 3-5.1-2-2.5-4.4 2.2-8.7 1.7-8.7-1.1 0-4.5 3.8-7.8 10.7-9.2 2.8-.6 3.3-.4 4.5 2.1 1.6 3.5 7.1 6.3 12.1 6.3 4.2 0 4 .9 1.7-9.7-.7-2.9-1.8-5.7-2.6-6.4-.8-.6-1.4-2-1.4-3 0-1.1-.4-1.9-.8-1.9-1.8 0-5.2-4.2-5.2-6.4 0-2 4.3-7.6 5.8-7.6.3 0 1.8 1.2 3.3 2.6zm133.3 9.8c1.6 2.1 2.1 4.3 2.1 9.6.1 3.7.6 7.4 1.2 8.1 1.7 2.2 3.5 9.9 2.9 12.5-1.5 5.7-6 1.1-7.6-7.7-.5-3-2.1-7.7-3.5-10.4-3.8-7.6-4.1-10.9-1.5-13.5 2.5-2.5 3.7-2.3 6.4 1.4zm6.6 38.2c0 1.7-2.2 1.4-2.8-.4-.2-.7.3-1.2 1.2-1.2.9 0 1.6.7 1.6 1.6zm4.1 8.6c1 1.8.8 2.4-.6 3.5-1.4.9-2.2 1-3.2.2-1.6-1.4-1.7-4.6 0-5.2 2.1-.9 2.6-.7 3.8 1.5zm2.9 30.3c0 1.9-1.6 2.7-4 2-2.2-.7-2.6-2.5-.8-4.3 1.4-1.4 4.8.2 4.8 2.3zm9.5 3.1c2.2 2.3 1.5 4.9-1.4 4.9-3.2 0-4.9-2.8-3.2-4.9 1.7-2 2.6-2 4.6 0zM634 360.7c-.1.5-1.5 2.4-3.3 4.5-2.6 2.9-3.8 3.5-6 3.1-4.4-.8-4.2-2.2.6-4.2 2.5-1.1 4.8-2.4 5.1-3 .8-1.2 3.6-1.5 3.6-.4zm65 .3c0 .5-.7 1-1.5 1s-1.5-.5-1.5-1c0-.6.7-1 1.5-1s1.5.4 1.5 1zm-1.5 5.3c.8 2.4.6 3.1-1 4.3-4 2.9-7.8-.5-5.7-5.1 1.6-3.5 5.3-3.1 6.7.8zm-6.7 19.9c.2 2.2-.4 5-1.5 7-1 1.8-2 4.8-2.3 6.7-.6 3.9-3.3 6.2-5.1 4.4-2.8-2.8-5.6-17.1-3.9-20.2 1-1.9 1.8-2.2 6.8-1.9l5.7.3.3 3.7zm-5 23.1c.2 1-.3 1.7-1.2 1.7-1 0-1.6-.9-1.6-2.1 0-2.4 2.3-2.1 2.8.4zm86.8 8.4c-.8 1.6-3 4.4-5 6.2-2.9 2.8-3.6 3.1-3.6 1.7 0-2 3.7-8.6 5.4-9.8.6-.4 1.9-.8 2.9-.8 1.6 0 1.6.2.3 2.7zm-82 10.4c.6 1 3.3 14.8 3.4 17.1 0 .5-1.1.8-2.4.8-2.4 0-3.6-1.6-3.6-5.1 0-1.1-.9-4-2.1-6.5-1.6-3.6-1.8-4.9-.8-6 1.4-1.7 4.5-1.8 5.5-.3zm-109.2 2.5c.9.3 1.6 1.7 1.6 3 0 2.7 2.4 4.4 6.1 4.4.6 0 .9 1.4.7 3.2-.3 2.8-.9 3.4-6.8 5.9l-6.5 2.8 7.8.1c9.6 0 10.3 2.1 1.1 3.2-3.2.4-8.1 1.1-10.9 1.5l-5 .8 3.5 1.3c11.7 4.4 12.5 4.8 12.8 6.8.2 1.1-1 3.1-2.8 4.9l-3.1 3-5.6-3c-3.1-1.7-6-3.2-6.5-3.3-.4-.2-.8 1-.8 2.8 0 2.8.2 3 2.1 2 1.6-.9 2.6-.8 4.4.4 1.4.9 3.8 1.6 5.6 1.6 1.7 0 4.9 1 7.1 2.2 3.1 1.8 3.9 2.7 3.6 4.8-.4 4.6 1.7 3.6 4.5-2.1 2.3-4.7 2.8-6.9 2.8-13.3 0-6 .3-7.6 1.5-7.6 2.5 0 3.6 5.1 3.2 15-.4 11.1-2.2 15.6-9.4 23.7-5.4 6.3-4.9 6.9 1.2 1.3 2.4-2.2 5-4 5.8-4 3.2 0 4.6 1.3 4.6 4.3v3l9.3-.6c8.4-.6 9.6-.5 13.2 1.6 4.5 2.5 6.5 5.7 6.5 10.5 0 5.5-2.4 9.9-5.9 10.7-2.6.6-2.9.9-2.1 2.5 1.4 2.6 1.3 10.3-.2 11.8-2.2 2.2-6.8 1.4-9.7-1.7l-2.8-3-2 2.1-2 2-4.3-2.2-4.2-2.1.7-5.7c.6-5.4 2.6-9.2 4.8-9.2.5 0 2.1.9 3.7 2 2.1 1.5 3 3.2 3.5 6.7l.8 4.8.9-3.9c.7-3.3.5-4.3-1.1-6-1.1-1.2-2.4-3.3-2.9-4.7-.8-2-2.5-3-7.6-4.7-3.7-1.2-7.5-2.2-8.6-2.2-1 0-4 1.8-6.5 4-2.6 2.2-6.2 4.7-8.1 5.5-5 2.1-19.5 11.7-23.4 15.5-3.5 3.4-8.6 6-11.9 6-1.1 0-2.8-1.1-3.7-2.5-1.5-2.3-1.5-2.7 0-5 2-3.1 10.3-8.4 13.1-8.5 2.9-.1 12.6-6 9.8-6-1.2 0-3.2-1.4-4.7-3.3l-2.5-3.2-10.3-.1c-8.2-.1-11.3-.6-15.1-2.2-3.1-1.4-6.4-2.1-9.5-1.9-4.1.2-4.7-.1-5-1.9-.4-2.8 2.5-5.7 4.7-4.8.9.4 3.7 1 6.2 1.3 2.6.4 5.8 1.5 7.2 2.4 1.9 1.2 4.8 1.7 10.7 1.7h8.1l-.6-5.3c-.5-3.7.2-10.6 2.3-23.7 1.7-10.2 3.2-20.1 3.5-22 .4-2.6-.1-4.4-1.9-7.1-2.5-3.6-2.5-3.7-.8-7.9 1.3-3.2 2.6-4.6 5.3-5.7 3.4-1.5 3.6-1.4 5.9 1.2l2.3 2.8 2.7-2.5c4.5-4.2 6.9-5.2 9.6-4.2zm-396.5 62c-4 9.9-9.6 24.6-12.5 32.9-2.9 8.2-5.3 14.5-5.3 13.8-.1-.6 2.4-8.4 5.5-17.3 4.7-13.8 8.1-22.6 17.1-44.3.9-2 1.8-3.5 2-3.3.2.2-2.9 8.4-6.8 18.2zm514 26.3c1.7 1.1.7 4.1-1.4 4.1-.9 0-1.5-.9-1.5-2.5 0-2.7.6-3 2.9-1.6zM576.5 524c.3.5 1.3 3.6 2.1 6.7 1.8 7.3 7.3 15.3 12.1 18 2.1 1.2 9.2 4 15.8 6.2 14 4.8 34.3 14.8 35 17.2.3 1 2.1 2.7 4 3.8 3.5 2 4.7 5.1 2.1 5.1-.7 0-2.5-.9-4-2.1-2.1-1.6-3.5-2-6.1-1.5-4.1.8-10.7-2.2-17.5-7.9-2.4-2-6.6-4.8-9.3-6.1-5.5-2.9-20-6.8-20.5-5.7-1.1 3.4-2.1 3.6-13.3 3.4-6.1-.1-12-.6-12.9-1.1-1.7-.9-3-.4-3 1.1 0 1.4 5.7 3.9 8.7 3.9 1.5 0 3.7-.7 4.7-1.5 2.8-2.1 4.3-1.9 6.8 1 1.9 2.2 2.9 2.5 9.5 2.5 9.2 0 8.7 1.6-.7 2.5-6 .6-7 1-7 2.6 0 1.1.5 2.8 1.2 3.8 1 1.7.6 2.6-2.7 6.8-6.5 8.1-6.3 7.7-3.5 6.9 10.5-3 21-11.2 21-16.3 0-1.8.6-2.3 2.5-2.3 2.9 0 3.2 2.1 1 6-1.9 3.4-1.8 4 .5 4 1.1 0 2 .7 2 1.5 0 1.9-2.8 3.1-4.1 1.8-.6-.6-3.7 1.9-8.4 6.6-4.1 4.1-7.3 7.6-7.1 7.8.2.2 1.6-.1 3.1-.7 5.8-2.2 3.9 1.6-2.4 4.7l-3.8 1.9 2.3 2.7 2.3 2.7 1.6-3c1.7-3.4 4-3.9 5.4-1.2.6 1.2.5 2.3-.5 3.7-.8 1.1-1.9 3.7-2.5 5.9-2.9 10.7-8.8 17.6-15.1 17.6-1.6 0-2.8.5-2.8 1 0 1.4-4.6 6-5.9 6-4.3 0-8-11.7-6.2-20 .6-2.9 1-5.3.9-5.4-.2-.1-2.1-1-4.3-2.1-5-2.6-9.1-10.2-10.9-20.4l-1.2-7.4-4.3 6.9c-6.9 10.8-8.3 12.8-12.4 17.3-3.7 4.1-3.9 4.2-6.3 2.6-1.3-.8-3.6-3.3-5-5.5-3.8-5.7-2.5-8.6 9.6-21.5 3.6-3.9 9.4-10.7 12.9-15.2 3.4-4.5 7.1-8.5 8.1-8.8 1.7-.6 3.8-3.1 6.9-8.5.8-1.4 1.5-5.3 1.5-9.2.1-7 1.9-10.8 5.1-10.8.8 0 4.1-2 7.3-4.5 6-4.8 6.7-5.1 7.7-3.5zm41.2 14.8c2.3 1.5 1.4 15.8-1.1 17.4-1.8 1.2-2.6-1.4-2.6-8.4 0-9 .8-10.9 3.7-9zm-1.9 31c.3 1.6-.2 2.2-1.7 2.2-2.4 0-3.5-1.5-2.7-3.6.9-2.3 4-1.3 4.4 1.4zm-426 27.8c2.1.6 1.4 3.7-3.7 16.5-10.1 25.1-13.6 40.9-13.6 61.4 0 18 1.2 21.5 8.5 25.2 7.5 3.9 13.2 2.7 24.5-4.8 4.2-2.8 8.2-4.9 8.9-4.6 2.5 1 8.9 29.8 6.9 31.8-.7.7-9.6.7-30.6 0-16.3-.6-31.8-1.1-34.6-1.1-8.5 0-8.5.1-7.8-25.5.4-15.7 1.2-27.3 3.1-40.7 4.4-31.8 9.2-55.3 11.8-58.5.8-1 4.2-1.1 13.2-.7 6.6.3 12.7.7 13.4 1zm64.5 3.3c.8.8.5 2.8-1.2 7.3-4.4 11.8-6.2 21-6.8 34.8-.5 11.7-.3 14.6 1.6 21.9 2.5 10.2 8 21.6 13.1 27.4l3.8 4.2 3.5-1.7c4-1.9 10.6-9.8 14.2-16.8 5.1-10.1 6.7-16.9 7.2-31.1.6-15.2-.9-25.4-5.4-36.5-1.4-3.5-2.3-7.1-1.9-7.9.4-1.2 2.7-1.5 12-1.5 13.1 0 13.4.2 16.3 8.2 1.5 4.5 1.8 8.4 1.7 26.3 0 19.5-.2 21.7-2.7 30.8-5.9 22.1-19.3 44-35 57.3-9.2 7.9-12.2 7.5-23.5-3-15.2-14.2-25.1-34.5-28.9-59.1-1.1-7.5-1.4-14.5-1-28 .6-18.4 2-27.3 5.2-32.1l1.7-2.7 12.5.6c7 .3 13 1 13.6 1.6zm363.5 1.3c1.8 1.8 1.5 3.6-.8 4.8-1.7.9-2.2.7-3-1.6-.8-2.1-.8-2.9.2-3.6 1.7-1 2.2-1 3.6.4zm-263.7.8c2.1 0 3.9.6 4.2 1.3.3.7-1 7.1-2.8 14.2-7.6 29.9-8.5 61.6-2.8 97.8 1.1 6.7 1.3 11.1.7 11.6-.5.5-6.5.7-13.8.4l-12.8-.6-1.6-3.6c-4.6-10.8-1.4-93.4 4.4-113.1 2.5-8.7 3.5-9.4 12.9-8.6 4.4.3 9.6.6 11.6.6zm46.2 1.9c.8.8.5 2.8-1.2 7.3-4.4 11.8-6.2 21-6.8 34.8-.5 11.7-.3 14.6 1.5 21.8 2.7 10.5 7.9 21.5 13 27.3l4 4.4 3.4-1.7c6.3-3 13.9-14.1 18.4-26.9 2.2-6.1 2.7-9.8 3.1-21 .6-15.3-.9-25.5-5.4-36.4-3.8-9.3-3.5-9.5 10.1-9.5 13.3 0 13.7.2 16.3 8.8 1.5 4.7 1.8 9.3 1.7 26.2 0 19-.2 21.2-2.7 30.3-3.2 11.8-10.7 27.9-17.7 38.1-6.1 8.8-20.3 22.8-24.7 24.3-4.1 1.5-7.9-.5-16.1-8.1-15-14.1-24.8-33.9-28.8-58.4-1.2-7.5-1.5-13.9-1.1-28.2.6-19 2-27.7 5.2-32.6l1.7-2.7 12.5.6c7 .3 13 1 13.6 1.6zm246.7 18c0 2.1-16.9 23.5-19.2 24.4-1.8.6-1.9.4-1.3-2 .3-1.6 2.1-4.4 3.9-6.3 1.8-1.9 4.5-5.3 6.1-7.5 4.1-5.8 7.7-9.5 9.2-9.5.7 0 1.3.4 1.3.9zm25.5 67.1c0 .7-.6 1.5-1.2 1.7-.8.3-1.3-.4-1.3-1.7 0-1.3.5-2 1.3-1.8.6.3 1.2 1.1 1.2 1.8zm18.2 77.7c.4.9.1 1.9-.5 2.1-.7.2-1.2 1.2-1.2 2.2 0 2.4-1.5 3.3-4 2.5-2-.6-2.6-3.7-1.4-6.9.8-2.2 6.3-2.1 7.1.1zm-43.9 3.6c3.1 2.9 2.9 7.5-.8 12.5-4.3 6-6.4 6.8-8.9 3.6-1.1-1.4-2.8-4.5-3.7-7-2.3-6-1.2-9.5 3.6-11.1 4.1-1.4 6.6-.9 9.8 2zm85 16c.2 1-.4 2.7-1.4 3.8-2.8 3.2-11.5 8.3-12.3 7.3-.5-.5-1.1-2.9-1.4-5.2-.5-4.3-.5-4.4 3.6-6.3 5.2-2.4 11-2.2 11.5.4zm-81.9 2c1.2 1.5.5 2.7-1.6 2.7-.7 0-1.3-.9-1.3-2 0-2.3 1.3-2.6 2.9-.7zm-6.6 1.4c.9.9-1.3 3.4-2.4 2.7-1.4-.8-1.1-3.4.4-3.4.8 0 1.7.3 2 .7zm7.8 7.4c.9 1.8.7 2.5-.9 4.1-1.7 1.7-2.3 1.8-4.3.8-4.3-2.3-4.8-4.1-1.9-7 2.3-2.3 5.1-1.5 7.1 2.1zm7.7-.8c.2 1-.3 1.7-1.2 1.7-1 0-1.6-.9-1.6-2.1 0-2.4 2.3-2.1 2.8.4zm3.7 2.5c0 1.8-2 1.5-2.3-.4-.3-1 .1-1.5 1-1.2.7.3 1.3 1 1.3 1.6zM248 813.1c20.4 10.9 35.2 46.1 33.7 80.3-.7 17.5-4.8 27.8-14.2 36.5-9.2 8.5-19.1 10.7-41 9.2-15.2-1-21.8-2.8-28.3-7.8-12.2-9.2-16.9-22.4-15.9-44.2.7-14.3 3-25.1 8.1-37.4 13.9-33.6 36.4-47.9 57.6-36.6zm84.2 1.9c29.9 1.1 34.5 2.1 41 8.4 5.8 5.7 7.3 9.8 7.3 20.6 0 8.9-.2 9.9-3.4 15.8-5.8 10.7-15.6 18.3-40.9 31.8-4 2.1-9.1 5.6-11.4 7.8l-4.1 3.9.6 10.6c.3 5.8 1.3 13.9 2.1 18 1.2 5.5 1.4 7.6.5 8.2-.6.4-6.8.5-13.8.2-14.7-.6-15.5-1-16.8-10.1-1.1-7.7-.7-49.3.7-68.9 1.2-18.4 3.5-34.5 5.6-40.5 1.3-3.8 3.7-6.8 5.3-6.8.3 0 12.6.5 27.3 1zm109.5 3.6c17.3.5 24.8 1 26 1.9 1.7 1.2 1.4 2-3.1 10.9-2.7 5.3-5.8 10.5-6.8 11.6-1.9 2-1.9 2-5.7-.6-11.2-7.3-26.7-7-33.8.7-5.1 5.6-6.9 15.7-3.5 19.8l1.7 2.2 8.4-2.6c15.8-5 27.1-5.1 27.1-.3 0 2.8-9 23.9-10.4 24.4-.7.3-3.1-.2-5.5-1.1-9.7-3.4-18.9-.8-23.8 6.7-2.4 3.6-2.8 5.1-2.8 11.7 0 5.9.5 8.4 2.1 11.1 6 10.3 19.5 11.6 35.2 3.4 3.5-1.9 7.1-3.4 7.9-3.4 2.7 0 13.5 27.2 11.5 29.2-1.3 1.3-75.7-.9-78.3-2.3-2.3-1.2-2.5-5.9-1.7-29.6.9-27.5 8.5-79 13.5-91.4l1.6-4.1 8.1.6c4.5.3 19 .8 32.3 1.2zm64.1 4.1c6.4 4.6 15.9 19.3 31 47.5 5.4 10.2 9.9 17.5 10.5 17.1 1.8-1.1.1-32.3-2.7-48.7-1.6-8.9-2.2-15.4-1.7-15.9 1.3-1.3 19.8-.4 21.2 1 3.2 3.2 4.2 11.8 4.6 40.6.7 39.9-1.5 73.4-5.4 80.9-1.3 2.8-1.4 2.8-12.3 2.8-11.8 0-13.5-.7-14.6-5.8-5.9-28-16.9-56-29.1-74.5-5-7.6-7.1-8.2-8.6-2.7-1.5 5.8-.2 53.8 1.9 67.7 1 6.8 1.5 12.6 1.1 12.9-.7.8-19.2.5-21.2-.3-2.6-.9-3.7-7.5-4.2-25.8-.9-31 2.3-76.8 6.3-90.5 2.5-8.6 3.5-9.3 12.7-8.8 5.7.4 8.5 1 10.5 2.5zm137.6 15.5c.4 1.6 0 2.8-1.5 4-4.5 3.8-7.6.4-3.4-3.8 3-3 4.1-3 4.9-.2zm66.4 19.7c2 1 5.8 4.6 8.4 7.9 4.2 5.4 4.9 7.1 6.4 14.9 1.7 9.2 1.5 19.2-.6 27.3-.6 2.5-1.4 6-1.7 7.7-.3 1.8-.9 3.3-1.3 3.3-.5 0-1.5.3-2.3.6-2.8 1-3.9-3-2.7-9.3.9-4.9.7-6.6-1-11.8-3.3-10-5.2-12.3-13.3-16-14.4-6.5-17.4-15.7-7.7-23.9 3.9-3.2 10.3-3.5 15.8-.7zm-293.7 171.5c7.9 1.7 15.4 5.3 19.1 9.3 10 10.6 3.7 27.3-10 26.1-3.3-.3-3.7-.6-4.7-4.5-1.4-5.7-4.3-8.4-10-9.3-17.6-2.7-31.1 10.4-34.7 33.6-3.9 25.3 12.5 47.8 33.7 46.1 10.4-.8 18-6.1 22.5-15.7 1.3-2.8 2.7-5 3.1-5 1.2 0 2 3.3 2.6 10.5 1.3 17-8.5 31.3-24.6 35.9-7.6 2.2-20.5 2.1-28-.3-23-7.1-36.2-31-34.8-62.5.9-21.2 7.4-37.4 20.2-50.2 12.9-13.1 28-17.7 45.6-14zm60.9 3.4c6.5.8 6.4.4 2.6 14.2-3.9 14.3-5.6 27.8-5.6 44.5-.1 21.3 3.2 32.3 11.3 38.9 3.3 2.6 4.7 3.1 9 3 13.7-.2 20.7-11.5 22.9-37.3 1.3-14.9-.2-38.1-3.2-51-1.2-4.7-1.8-9.1-1.6-9.8.4-1 3.3-1.3 10.8-1.3 5.7 0 10.8.4 11.5.8 4.4 2.8 6.9 23.7 5.9 50.2-.4 9.6-1.1 20.6-1.6 24.5-3.7 25.3-12.2 40.5-26.9 47.8-6.3 3.1-7 3.2-18.6 3.2-11.4 0-12.3-.2-18.5-3.1-12.1-5.8-19.6-16-24.2-32.9-4.8-17.6-1.9-73.4 4.6-89l1.5-3.5 7.3.1c4 .1 9.8.4 12.8.7zm114 3.2c28.7 1.1 33.2 2 39.8 7.6 6.8 5.8 8.7 10.3 8.7 20.9 0 7.8-.4 9.7-2.8 14.6-5.5 11.3-14.5 18.7-37.8 31.3-20.2 10.9-21.2 12.7-18.3 31.8 1 6.8 1.8 13.9 1.8 15.8l.1 3.5-13-.4c-7.1-.2-13.6-.8-14.2-1.3-3.2-2.5-3.8-9.2-3.7-37.8.2-54.7 4.7-87.1 12.3-87 .9 0 13.1.5 27.1 1zm149.4 40.6c.6 1.5-.3 1.8-2.8.8-.9-.3-1.6-1.2-1.6-1.9 0-1.7 3.7-.8 4.4 1.1zm5.4 3.1c.2.8-.5 1.3-1.7 1.3s-2.1-.6-2.1-1.6c0-1.8 3.1-1.5 3.8.3zm15.7 8.7c1.7 1.3 2.7 2.7 2.3 3.1-.9.9-6.4-2.1-7.1-4-.9-2.2 1.4-1.8 4.8.9z"/><path d="M602.5 273c.3.5 1 1 1.6 1 .5 0 .9-.5.9-1 0-.6-.7-1-1.6-1-.8 0-1.2.4-.9 1zM542.5 280.5c0 6.4 0 6.5 2.7 6.5 4.1 0 5.3-3.1 3.2-8-1-2.2-2.1-4-2.5-4-.4 0-1.3-.2-2.1-.5-1-.4-1.3 1-1.3 6zM566.8 292.2c-1 2.4-1.8 5.7-1.8 7.4 0 1.8-.7 3.7-1.5 4.4-1 .8-1.5 3-1.5 6.5 0 4.4.3 5.4 2 5.8 1.6.4 2 0 2-2.1 0-1.5 1.2-5.4 2.5-8.7 2.7-6.6 3-10.5 1.2-14.8l-1.2-2.7-1.7 4.2zM588.5 367c-1.1 1.3-2.5 1.8-3.7 1.4-1-.3-1.8-.1-1.8.3 0 1.5 2.3 3.3 4 3.3 1.7 0 4 3.8 4 6.5 0 .7-1.5 4.3-3.4 7.9-1.9 3.6-3.1 6.6-2.7 6.6.5 0 2.3-2.7 4.1-6.1 2.5-4.8 3.2-7.2 3.2-11.7 0-11.1-.4-11.8-3.7-8.2zM570 375.4c0 1.5.5 3.6 1 4.7 1.4 2.5 6.1 2.5 8.3.1 2.3-2.5 2.2-6.2 0-6.2-1 0-3.5-.3-5.5-.6-3.6-.6-3.8-.5-3.8 2zM560 376.8c0 3.6-5.2 20.9-7.8 26.3l-2 4 3.1-.6c1.8-.4 5.9-1.5 9.2-2.6 3.3-1 9-2.2 12.7-2.6 6.3-.8 6.6-.9 5.2-2.7-1.2-1.8-1.7-1.8-5.3-.6-3.5 1.1-4.3 1.1-6.5-.4-4.9-3.1-6.1-6.3-6-15.3.1-6.4-.2-8.3-1.2-8.3-.9 0-1.4 1.1-1.4 2.8zM597 381.3c0 4.8-2.4 12.2-5.4 16.8L589 402l2.7-.1c1.6-.1 4.2-.4 5.8-.8l3-.7-2.2-1.4c-2.8-1.8-2.9-4.4-.2-11.2 2-5 1.9-9.8-.1-9.8-.6 0-1 1.5-1 3.3zM609 397.1c-4.4 2.9-4.4 2.9-1.5 2.9 1.7 0 4.6.4 6.5.9 1.9.5 4.7 1.2 6.3 1.5 1.8.4 2.7 1.3 2.7 2.6 0 3 6.9 2.8 9.9-.3l2.2-2.4-3.8-2.6c-4.7-3.2-7.5-4.3-13.3-5-3.8-.5-5.1-.1-9 2.4zM566.6 445.3c-1.8 1.3-1.8 1.4-.1 2.1 2.2.8 4.4-.9 2.9-2.4-.7-.7-1.6-.6-2.8.3zM578 486.4c0 1.1-1 3-2.2 4.3-1.2 1.3-1.9 2.6-1.6 2.9 1 .9 8.9-3 12.7-6.3l3.3-2.8h-6.1c-5.4 0-6.1.2-6.1 1.9zM569 512.8c-2.9 4.1-3 4.4-.9 3.1 1.3-.9 4.5-2.8 7.2-4.3 2.6-1.5 4.7-2.9 4.7-3 0-.1-1.8-.2-3.9-.2-3.5-.1-4.2.3-7.1 4.4zM571 549c-1 .6-.8 1 .6 1.8 3.1 1.7 9.4 2.6 9.4 1.3 0-2.3-7.4-4.7-10-3.1zM556 567.9c0 .5 1.5 1.4 3.3 2.1 1.7.6 4.7 1.8 6.5 2.6 3.9 1.7 5 1.8 3.5.3-.6-.6-.9-1.7-.7-2.4.3-.8-1.4-1.6-5.2-2.4-6.9-1.3-7.4-1.3-7.4-.2zM558.1 576.8c.2 5.6 1.3 7.5 4.4 7.7 4.7.4 7.3-.5 7.8-2.6.5-2-.8-3-8.5-6.2l-3.8-1.6.1 2.7zM568 617.9c0 1.3 2.8 3.3 3.3 2.3.3-.4-.3-1.3-1.4-2-1-.7-1.9-.8-1.9-.3zM229.5 835.4c-10.6 4.6-20.5 25.9-22.1 47.4-1.5 20.1 5.9 28.5 25.1 28.6 7.4 0 9.7-.3 13.2-2.2 9-4.7 11.9-12.4 11-29.1-.7-12.1-2.5-19.8-6.7-28.9-3.8-8.2-8.1-13.5-12.4-15.6-4-1.9-4.2-1.9-8.1-.2zM328.3 836c-1.8 1-3.9 3.3-4.8 5-4.3 8.2-6.2 31.9-2.8 33.8 5.1 2.9 25.8-10.2 32.5-20.7 3.6-5.6 3.4-10.8-.7-15.1-4.9-5.1-18-6.8-24.2-3zM588 1056.3c-3 1.5-6.6 6.8-8 11.6-1.4 4.8-3.1 23.1-2.4 25.3.9 3 3.5 3.7 7.7 2.3 10.8-3.7 26.6-17 28.8-24.3 2.6-8.8-5.4-16.2-17.6-16.2-3.3 0-7.1.6-8.5 1.3zM394.5 121.9c-32.7 13.2-60.6 27-88 43.4-15.3 9.1-32.5 20.4-32.5 21.2 0 .2 5.7-3.3 12.8-7.9 32.7-21.4 75.5-43.2 114.2-58.3 6.3-2.5 11.7-4.7 11.9-4.9 1.4-1.3-3.2.4-18.4 6.5zM499.2 117.7c-4.3 3.3-4 5.4 2.7 17.2 3.9 6.8 5.1 9.9 5.6 14.9.4 3.5 1.7 8.2 3 10.6 1.2 2.3 2.6 5.7 2.9 7.3.4 1.7 3.1 5.6 5.9 8.7l5.2 5.6 15.8-4.5c15.2-4.3 42.1-10.1 57.5-12.6 6.4-1 7.1-1.3 5.5-2.4-2.9-2.1-1.1-2.5 4.4-1.1 3.8 1 9.7 1.2 22.6.8 12.5-.3 17.6-.2 18.1.7.4.6.1 1.1-.6 1.1s-19.5 2.7-41.8 5.9c-37 5.5-65.5 10.4-75.3 13.2-3.8 1-3.9 1.1-2 3.1 1 1.1 4.4 3.3 7.5 4.9 11.2 5.6 41.1 7.1 52 2.5 6.6-2.8 27.8-1.3 34.7 2.3 1.6.9 4 1.1 7.5.6 2.8-.4 20.5-1.1 39.3-1.4l34.2-.6-19.7-12.2c-21.4-13.3-29-19.3-31.6-24.8-2.1-4.4-1.4-7.1 2.7-9.5 3-1.9 3-1.9.6-2.4-6.8-1.4-7.6-1.3-7.1.6.3 1.5-.2 1.8-2.9 1.8-4.9 0-19.2-2.5-28.3-4.9-8.8-2.3-10.6-2.5-10.6-1.2 0 .9 12.4 6.4 17.3 7.6 1.5.4 2.7 1.1 2.7 1.5 0 .5 1.7 1.1 3.8 1.5 4.9.8 7 2.1 5.7 3.4-.8.8-3.9.6-10-.4-10-1.7-26.5-9.1-32.4-14.6-1.8-1.6-3.6-2.9-4.2-2.9-.5 0-.9-.5-.9-1 0-.6-2-1-4.5-1-3.1 0-4.7-.5-5.1-1.5-.4-.8-1.4-1.5-2.4-1.5-1.1 0-2.2-.5-2.5-1.1-.9-1.3-11.2-5.9-13.5-5.9-1 0-2.3-.6-2.9-1.4-1.9-2.3-11.2-5.8-17.6-6.7-3.3-.4-8.7-1.3-12-1.8-3.3-.6-10.5-1.1-16-1.1-9.3 0-10.2.2-13.3 2.7zM506 129c0 1.1-.4 2-1 2-.5 0-1-.9-1-2s.5-2 1-2c.6 0 1 .9 1 2zm8.8 9.4c.2.9-.3 1.6-1 1.6-1.7 0-3.8-2-3.8-3.7 0-1.8 4.4 0 4.8 2.1zm7.2 30.1c0 2-2.6 1.9-3.4-.1-1.1-2.8-.7-3.5 1.4-2.4 1.1.6 2 1.7 2 2.5zm140.7 1.2l2.7 1.8-5.8.3c-3.3.2-6.4-.2-6.9-.7-.6-.6-2.1-1.1-3.4-1.1-3 0-3-2.7 0-3.2 3.5-.5 10.4 1 13.4 2.9zm-51.2 14.4c3.2.6 7.3 1.8 9 2.6l3 1.6-3 1.3c-3.7 1.6-8.4 1.7-16.1.3-5.7-1-19.8-5.1-23.9-7-2.6-1.2 22.8-.2 31 1.2zM638.5 117c.3.5.8 1 1.1 1 .2 0 .4-.5.4-1 0-.6-.5-1-1.1-1-.5 0-.7.4-.4 1zM755 116.8c0 .5.7 1.5 1.5 2.2 1.8 1.5 2 4.1.4 5.7-1.8 1.8 3.7 5.3 8.3 5.3 3.5 0 4.6.7 8.8 5 2.7 2.7 5.3 5 6 5 .6 0 4.3 3.4 8.3 7.4 5.9 6.1 7.9 7.6 11.2 8.2 4.7.8 5.1 1.2-8.2-10.1-9-7.5-10.7-9.5-8-9.5 1.2.1 11.6 5.4 20 10.4 8.2 4.8 5.1 2-5.3-4.9-5.4-3.7-15.2-9.1-21.7-12-7-3.2-13.7-7.1-16.5-9.5-2.7-2.3-4.8-3.7-4.8-3.2zM1077.1 124.7c-4.8 5.4-10.3 16.1-12.8 24.8-1.4 4.8-1.7 10.2-1.8 26.5 0 11.3-.3 21-.7 21.6-.4.6-4.3 3.1-8.6 5.7-12.8 7.4-23.9 19.1-21.7 22.7 1.1 1.7 17.7 14 18.9 14 .6 0 2.7-2.5 4.6-5.6 5.1-8.1 15.2-17.3 24.5-22.1 4.4-2.3 14.8-6.4 23-9.3 20.8-7.2 27.3-10.8 37.1-20.5 9.2-9.1 10.5-11.6 7.7-14.7-2.6-2.9-12.9-10.8-14.2-10.8-.5 0-2.3 2.4-4 5.4-4.6 7.9-11.8 14.1-22.4 19.1-5.1 2.4-11.4 4.8-14.2 5.3-8.5 1.8-10.2-.7-9.1-13.2 1.1-13.1 5.8-24 13.8-32.2 3.2-3.3 4.9-5.8 4.6-7-.4-2.3-16.2-14.4-18.8-14.4-1 0-3.7 2.1-5.9 4.7z"/><path d="M613.5 133.3c2.1 1.5 17.8 6.7 19.8 6.7 2.2-.1-2.1-2-11.3-5-10.3-3.4-11.3-3.6-8.5-1.7zM694.1 144.4c.3.3 20.5 6.4 40.2 12.2.9.3 1.7.1 1.7-.5s-.6-1.1-1.2-1.1c-.7 0-4.4-2-8.1-4.4-6.1-4-7.6-4.5-14.5-5-4.2-.4-10.1-.8-13.1-1.1-2.9-.2-5.2-.2-5-.1zM661 147.4c0 .9.8 1.2 2.5.8 2.8-.5 2.4-2.2-.6-2.2-1 0-1.9.6-1.9 1.4zM655.8 149.7c.6.2 1.8.2 2.5 0 .6-.3.1-.5-1.3-.5-1.4 0-1.9.2-1.2.5zM768 153.5c.7.8 3.7 2.9 6.6 4.6 6.1 3.5 8 5.7 9.5 11.4 1.3 4.9 3 6.8 9.7 11.1 12.8 8.2 34.9 18 57.7 25.4 5.5 1.8 14.1 5.2 19 7.5 5 2.4 10.6 4.6 12.6 4.9 2 .4 4.4 1.5 5.4 2.6 1.9 2.1 23.5 13 25.8 13 .7 0 2.1.9 3 2.1 1.6 1.8 2.5 2 7 1.4 2.9-.4 5.8-1.2 6.5-1.8.9-.7 2-.4 4 1.2 3.8 3 8.6 6.4 16.2 11.4 5 3.3 7 5.3 8.8 9 1.2 2.6 2.7 4.7 3.2 4.7.6 0 1 .6 1 1.2 0 1.9 5.6 13.5 9.2 19.1 5.3 8.3 2.4 6.1-5.8-4.5-13.3-17.2-12-16.3-39.4-28.1-30.6-13.2-28.5-12.4-27.7-10.4.8 2.1-1.1 2.2-5.8.3-4.5-1.9-4.7-4-.2-3.1l3.2.6-3-1.8c-3.7-2.3-12.9-6.3-14.6-6.3-.8 0-.6.7.5 1.9 1 1.1 2.5 1.7 3.7 1.4 1.3-.4 1.9 0 1.9 1.1 0 1.6-2.1 2.2-3.3 1-.4-.4-2.4-.8-4.6-1-2.5-.2-11.5-4.1-23.8-10.2-18.7-9.2-40.8-18.2-44.9-18.2-4.4-.1-20.9-5-22.1-6.6-.7-1-1.3-1.4-1.3-1 0 .5-1.1.1-2.5-.8-3-2-3.5-2-3.5-.2 0 .8-.8 1.7-1.7 2.1-1.6.6-1.5.8.7 2 1.4.7 6 2.2 10.3 3.4 4.3 1.2 11.2 3.8 15.5 6 4.2 2.1 15.2 6.1 24.4 8.9 19.4 6 31.9 11.2 43 17.9 5.8 3.5 7.8 5.2 7.5 6.5-.4 1.2.8 2.2 4.2 3.7 12.5 5.4 32.1 15.2 32.1 16.1 0 .5-1.8 1-3.9 1-2.2 0-4.3.4-4.6 1-.4.6.7 1 2.4 1 2.4 0 3.1.4 3.1 1.9 0 1.3 1 2.1 3.4 2.5 2.8.5 3.5 1.2 3.8 3.3.2 2.1 1.1 2.9 4.8 4.1 2.6.9 7 3.7 10.3 6.7 3.2 2.9 8.4 6.6 11.6 8.3 7.4 4 14.3 10.2 19.9 17.7 5.4 7.4 4.3 8.1-5.7 3.5-9.5-4.4-10.8-3.3-2.5 2 11 7.1 24.5 17.4 29.4 22.4 2.4 2.5 4.1 4.6 3.7 4.6-1.5 0-7.2-3.3-12.2-7-2.7-2.1-6.6-4.1-8.5-4.5-4.8-1-10.2-3.8-19-10-8.7-6-33.3-18.5-36.6-18.5-1.2 0-4.2-.8-6.6-1.9-10.6-4.5-31.8-10-46.8-12-39.9-5.3-62.3-5.5-68.6-.5-1.8 1.4-1.8 1.5 0 2.7 1.1.7 7.2 4.6 13.5 8.8 50 32.8 60.9 39.9 61.8 39.9.6 0 1.6.7 2.3 1.5.6.8 4.7 3.4 8.9 5.9 4.3 2.5 9.9 6.1 12.5 8.1 10.1 7.7 31.8 12 39.6 8 1.6-.9 5.1-1.8 7.7-2.2 2.7-.3 5.5-1.1 6.3-1.7 1.7-1.4 25.7-6.2 26.5-5.4.4.3-1.4 1.6-3.9 2.8-2.5 1.2-4.8 3-5.1 4.1-.9 2.8.4 3.8 1.9 1.6 1.3-1.7 5-2.4 4.4-.8-.7 1.9-9.5 8.4-15.2 11.3-14.5 7.3-19.8 12.5-16.6 16.3 1.7 2.1.7 2.9-1.8 1.6-3.6-1.9-5.2-1.2-11.8 4.8-3.6 3.2-9.6 7.5-13.5 9.6-3.9 2-9.4 5.6-12.4 8-2.9 2.4-6.5 5-8.1 5.8-1.6.9-5.2 3.7-7.9 6.4-2.8 2.7-8.8 6.8-13.2 9.1-8.4 4.4-13.4 9.1-16.9 15.9-1 2.1-2.5 4.6-3.4 5.6-1 1.3.7.8 6-1.7 4.1-2 8.1-3.6 9-3.6.8 0 8.9-3.6 18-7.9 13.2-6.3 32.3-14.1 34.6-14.1.2 0 .4.6.4 1.4 0 .8-2.2 2.2-5.2 3.2-4.7 1.5-17.6 8.5-28.2 15.2-2.1 1.3-7.8 4.3-12.5 6.6-9.4 4.6-16 8.6-20.4 12.2-1.6 1.3-4.2 2.4-5.8 2.4-2.1 0-2.9.5-2.9 1.8 0 .9-2.7 5.5-6 10.1-4.4 6.2-6 9.3-6 11.7 0 6.1 6 6.8 14.8 1.8l4.2-2.5v3.1c0 1.6-.4 3-1 3-.5 0-1 1-1 2.2 0 1.2-2.3 5.8-5.2 10.2-7.8 12.2-9.8 15.6-15.6 26.3-2.9 5.4-7.7 12.8-10.7 16.6-5.2 6.3-5.5 7-5.5 12.1 0 6.1 2.3 18.2 4.5 23.8.8 2.1 2 7.9 2.5 13 .6 5.1 1.5 9.7 2 10.2.7.7 2.5-.5 5.3-3.2 3.6-3.5 5-6.2 8.1-15 2.1-5.9 8.1-19.1 13.2-29.4 5.2-10.3 9.4-19.1 9.4-19.4 0-.3-.7-.4-1.5 0-2.2.8-1.9-.7 1.6-7.7 4.4-8.7 12.6-20.9 19.8-29.5 3.4-4 11.1-14.8 17.2-24s11.5-16.9 12-17c1.8-.7.8 1.9-3.9 9.5-2.7 4.3-5.5 8.9-6.2 10.3l-1.3 2.5 2.8-2.5c1.5-1.4 6.1-7.7 10.3-14 4.1-6.3 14.2-20.3 22.4-31.1 8.1-10.8 14.8-20 14.8-20.5 0-.6 1.2-3 2.8-5.5 1.5-2.4 3.8-7.1 5.1-10.4 1.3-3.3 4.3-8.9 6.6-12.5 2.2-3.6 5.8-9.9 7.8-14 4-8.4 9.1-15 11.4-15 2.4 0 .7 5.3-5.7 17.6-3.1 6.1-6.3 12.8-7 15-2 6.1-6.2 14-12.9 24.2-6 9.1-7.2 12.2-4.9 12.2.6 0 8.1 6.9 16.5 15.2l15.4 15.3 4.5-2.4c6-3.2 9.7-7.7 9.1-11-.3-1.4-1.2-6.2-2.1-10.6-2.4-11.5-1.5-17.4 3.5-22.4 4.7-5 5.6-8.3 6.5-24.4.7-12.3.9-13.2 4.6-20.4 5.6-11 5.3-12.4-4.5-19.2-2.6-1.8-4.7-3.9-4.7-4.7 0-.8-.7-1.7-1.5-2-1.6-.7-2.1-3.4-.5-3.4 2.1 0 6 2.4 6.5 4.1.6 1.9 11.3 10.5 12.1 9.7.8-.8-.7-5.8-1.7-5.8-1.9 0-6.9-4.4-6.9-6.1 0-3.4 2.9-2.9 4.6.7 5.3 11.2 23.6 8.9 32.7-4 1.3-1.8 1.5-1.8 6.7-.1 3.9 1.3 5.5 1.5 5.8.6.6-1.8 2.6-1.3 4.1 1.1 1.3 2 1.4 2.1 2.6.4 1.2-1.6 1.4-1.5 3.4 1 2.1 2.7 2.2 2.7 5 1.1 5.9-3.5 10.8-1.4 9.5 4-.5 2.3.1 1.9 3.5-2.7 5.6-7.4 6.4-7.5 5.6-.7-1 7.6.2 9.5 6.5 10.3 4.7.6 5.1.9 6 4.3.5 2 1.2 7.6 1.6 12.4.5 7.4 1 9.2 3.1 11.8 2.6 3 2.6 3 1.9 17.7-.3 8.1-.9 17.2-1.2 20.3-.6 5.4-.5 5.8 3 9.6 3.5 3.9 3.6 4.2 2.7 8.9-1.9 9.7-6.8 20.6-10 22.4-3.1 1.6-4.1 1.2-4.1-1.5 0-1.6-.6-2.5-1.6-2.5-2.2 0-1.3-4.8 2.8-14.9l3-7.6-.6-20c-.4-11-1.1-22-1.6-24.5-.6-3.3-.5-5 .4-6.5 1.6-2.4.4-6.5-1.9-6.5-.9 0-2-1-2.5-2.3-.7-1.9-.9-1.7-.9 1.7l-.1 3.8-2.6-1.7c-2.2-1.4-2.8-1.5-3.6-.4-1.2 1.9-.2 10.5 2.7 22 3.3 12.7 3.2 14.4-.7 18.9-1.8 2-3.8 4.5-4.4 5.6-1.1 1.8-1.3 1.8-3.4-.9-1.2-1.5-2.6-2.7-3.1-2.7-1.7 0-.9 5.8 1.6 12.8 1.4 3.8 2.5 8.7 2.5 10.9 0 2.1.7 6.3 1.5 9.3 4.3 15.7 4.9 22 2 22-.7 0-2.5-1.9-4-4.2l-2.7-4.1-1.9 2.4c-1 1.3-3.3 5-5.1 8.1-2.9 5.1-3.7 5.7-6.5 5.8-2.9 0-3.8.9-10.7 11.2-8.7 13.2-10.8 18.8-8.2 21.7 1 1.1 1.3 2.2.8 2.5-.5.3-1.2 1.6-1.5 2.8-.6 2.4-.6 2.4 4.1-3.7.4-.6 2.4-5.3 4.5-10.5 3.5-8.9 8.6-17 10.8-17 3.8 0 0 9.8-7.9 20.2-5 6.6-5.1 6.8-4.5 12.3.5 4.5.8 5.3 1.9 4.4 1.1-.9 1.4-.4 1.4 3 0 5.3 4 15.2 6 14.9 2-.4 2.5-6.2.9-10.2-.7-1.7-2.6-5-4.2-7.2-3.9-5.6-3.5-9.8.9-10.2 3.9-.4 7.3 2.3 10.5 8.2 1.3 2.5 2.9 4.6 3.6 4.6.7 0 4-3.6 7.4-8.1 5.3-7 10.7-11.9 13.2-11.9.4 0 .7.9.7 1.9 0 1.1.5 2.1 1.1 2.3.7.2.1 2.5-1.5 6.2-1.4 3.2-2.6 6.1-2.6 6.4 0 1.1 4.5-3.5 9.7-10.1 9.1-11.3 9-8.2-.1 6.1-6.2 9.7-6.2 9.8-1.4 12.3 4.3 2.2 7.8 5.8 11.5 11.8 2.9 4.5 2.9 5.3-.2 10.2-1.4 2.2-3 5.1-3.5 6.5-.9 2.3-.8 2.4 1.8 1.8 1.5-.3 7.5-2.2 13.4-4.2l10.6-3.7 8.3 2.7c4.5 1.5 8.6 2.5 9 2.3.4-.3 1.7-4.8 3-10l2.3-9.5-2.3-7.8c-2.9-10.3-6.8-16.5-10.6-17.3-1.7-.4-6.9-.7-11.8-.8l-8.7-.1-4.4-4c-2.4-2.2-5.2-4-6.4-4-1.6 0-2.2-.9-2.7-4.1-.4-2.3-2-5.5-3.6-7.4-1.6-1.8-2.9-3.6-2.9-4 0-.4 1.4-2.3 3-4.2 3.5-4 3.7-5.7 1-10.1-1.1-1.8-2-4.1-2-5.2 0-2.6 3.5-6 6.1-6 1.2 0 2.7-.8 3.4-1.7 1.3-1.7 8.1-4 15.2-5 3.8-.5 4.5-.2 7.2 2.6 5.1 5.5 8.2 3.1 4.3-3.4-1-1.7-1.7-3.5-1.5-4.1.7-2.2 4.4-.1 6.9 3.7 1.3 2.2 3.1 3.9 4 3.9 1.5 0 1.4-1-.3-5.8-.3-.7.3-1.2 1.6-1.2 4.9 0 9.9 3.5 20.1 13.9l10.6 10.8 6.2 20.9c4 13.8 6.5 24.3 7.3 30.9.6 5.5 2.6 15.2 4.4 21.5 1.8 6.3 3.9 13.9 4.5 16.9.7 3 2.3 8 3.6 11.1 1.7 4.2 2.5 9.3 3.4 20.1.6 7.9 2.1 18.9 3.2 24.4 1.6 7.5 2.1 13.3 2 23.1-.1 17.6-1.8 21.7-13.8 32.8-7.9 7.3-8.5 8.2-8.1 11 .3 1.7 4.2 12.1 8.6 23 7.4 18.2 9.5 25.6 7.3 25.6-1.3 0-3.6-3-5.5-7.3-.9-2-2.8-4.2-4.1-4.8-1.3-.6-2.9-2.3-3.5-3.6-.7-1.4-1.4-2.4-1.6-2.2-.6.7 2.5 22.9 4.1 29.1 1.2 5 5.4 24.4 5.4 25.4 0 .2-.7.4-1.5.4-.9 0-3.2-3.7-5.9-9.4-2.4-5.1-5-9.8-5.9-10.2-.8-.5-3.5-5.3-6-10.7-4.2-8.9-4.8-9.7-7.4-9.7-1.5 0-3.5.4-4.3 1-3.1 1.9-5.8-4.1-4.5-10.1.6-2.6 1-3 3.1-2.5 1.3.4 2.4.5 2.4.4 0-.2-3.3-9-7.4-19.7-5.5-14.5-8-20-9.9-21.3-1.5-1.1-3.9-5.1-5.7-9.6-1.8-4.2-3.6-8.1-4-8.5-1.3-1.4-5.4 25.3-4.4 28.6.5 1.5 1.2 1.8 3.5 1.3 1.6-.3 4.3-.9 5.9-1.2 2.6-.6 3-.4 3 1.4 0 1.4-1.2 2.7-3.5 3.8-4.3 2-6 5-7.5 13.4-1.2 6.4-2.4 9-4.1 9-.5 0-.9-.6-.9-1.3 0-.6-1.1-3.8-2.4-7-1.8-4.4-4-7.3-8.7-11.5-8.9-8.2-9-8.2-13.8-.9-4.8 7.4-11.1 13.8-11.8 11.9-1-2.6-3.4-.9-9.1 6.5-3.3 4.3-7.8 10-10.1 12.8-2.2 2.7-4.1 5.5-4.1 6 0 .6 2.4 1.9 5.4 2.8 11.3 3.6 29.9 18.3 37.2 29.5 2 3.1 5.8 8.2 8.4 11.2 7.9 9.4 9.7 12.3 11.5 18.5.9 3.3 3 9.1 4.5 13 4.2 10.2 5.2 15.1 4.5 20.7-.5 3.6-1.1 4.8-2.1 4.4-1.1-.4-1.4.6-1.4 4.4 0 2.8-.4 5-.9 5-1.2 0-1.8-1.7-2.6-7.5-.4-2.6-1.9-6.7-3.2-9.1-2.3-4-2.8-4.4-6.4-4.4-2.8 0-3.9.4-3.9 1.5 0 2.2-1.7 1.8-3.4-.7-2.4-3.4-1.9-1.6 1.8 6.9 1.9 4.3 3.3 7.9 3.1 8.1-.8.9-2.8-1.3-5.6-6.4-2.8-4.8-12-14.4-13.9-14.4-1 0-2.7-4.4-3.5-9-.4-1.9-3.2-8.7-6.3-15-4.9-10-6.6-12.5-13.7-19.6-8.8-8.7-17.6-15.4-26.8-20.2-3.2-1.7-7.1-4.2-8.7-5.6-5.2-4.3-19.8-8.3-43-11.7-12.8-1.8-26.3-4.5-33.3-6.5-6.5-1.9-13.2-3.4-14.9-3.4-3 0-3.1 0-2.4 4.2 1 6.4 4.6 13.3 11.7 22.8 6.6 8.9 21.1 35.4 22.9 41.8.5 2.1 1.9 9.1 3 15.7 3.4 20.2 8 40.3 12 52.4 2.1 6.4 4.3 15.2 4.9 19.6 1.2 9.8 1.9 45 .9 46.1-1.2 1.1-1.7.2-2.7-4.9-1.5-8-10.3-16-18.9-17.3-6.1-.8-8.7-2.6-11.2-7.4-3.6-7-1.7-21.6 4-30.8 4.1-6.6 3.6-29.4-1.1-49.2-2.8-12.2-3-12.3-8.1-7.2-7.2 7-7.9 5-1.7-5.3l4.2-6.9-4.8-9.5c-2.6-5.3-7-12.7-9.8-16.4-7.5-10.2-20.7-20.2-32.6-24.7-4.9-1.9-5.1-1.9-5.1-.2 0 5.8 12.7 34 20 44.7 6.3 9.1 11.2 23.5 8 23.5-1.4 0-6.9-5.6-11.3-11.5-3.2-4.2-3.1-4.1.2 4.3 2.7 6.8.9 6.6-3.6-.4-1.8-2.7-8.7-12.3-15.5-21.3-11-14.7-12.3-16.1-12.6-13.6-.2 1.5.3 4.6 1.2 6.9 2.6 7.2 8.8 30.7 8.2 31.3-.9 1-6-11.1-11.1-26.7-4.8-14.8-6.5-18.3-6.5-14 0 5.2-2 0-5.3-14-1.9-8-3.7-18.1-4-22.5-.9-12.1-6.6-36.7-6.7-28.7 0 4-8 26.6-10 28.7-3.6 3.6-4.5.8-4.5-13.5 0-8-.4-12.9-1-12.7-.5.2-1.2 1.4-1.5 2.8-.5 2-1.2 2.4-4.2 2.5-2.5.1-3.9-.4-4.3-1.5-.3-.8-1.5-7.4-2.6-14.6-1.4-9.6-2.4-13.3-3.7-14.3-2.5-1.9-2.7.6-.9 9.2.9 3.9 2 12.3 2.6 18.6 1.6 16.9 7.1 35 10.6 35 1.5 0 5 9.8 9.5 26 12.5 45.5 13.8 50.7 13.3 53.2-.4 2 0 3.3 1.6 4.5 2.6 2.3 6.5 15.7 8.1 28.3.7 5.2 2.8 14.9 4.7 21.5 3.9 13.6 4.1 15.7 5.2 46.1l.8 22.2 6.8 8.8c3.7 4.9 10.2 12.8 14.4 17.7 6.9 8 7.6 8.6 8.3 6.6 1.1-2.9.3-10.9-3.2-30.4-3-16.6-5-22.2-16.9-47.9-3.3-7.2-4.1-10-4.1-14.7 0-3.5-1.3-10.3-3.4-17.6-1.8-6.5-4.1-16.5-5.1-22.3-3.4-21.2-6.6-35.8-10.6-49-8.5-28.2-8.6-28.5-3.8-27.8 1.9.2 2.8 1.5 4.7 6.8 1.2 3.6 3.3 7.4 4.6 8.6 3.6 3.2 4.5 5.4 7.7 19.6 1.6 7.1 3.1 13.3 3.4 13.7.2.4 1.3 5 2.4 10.2 1.6 7.3 13.1 48.2 15.8 55.9.9 2.7 2.2-2.1 2.2-8.9.1-3.5.4-6.1.9-5.7.4.4 1 11.2 1.3 23.9l.5 23.2 6.3 19c7.3 22 7.7 23.5 6.2 23.5-.6 0-1.1-.7-1.1-1.5s-.5-1.5-1-1.5c-1.1 0-.8 3.1 1.7 17 .8 4.7 1.7 10.3 1.9 12.5.4 3.5 1.7 5.2 10.7 13.8 5.6 5.4 15.4 14.2 21.7 19.5 25.4 21.3 32.8 28.8 30.7 30.8-1 1-5.2-2.1-15.6-11.6-5.3-4.7-11.7-10.2-14.2-12.1-2.5-1.9-10.6-8.4-17.9-14.6-7.3-6.2-13.7-11-14.2-10.7-.4.3-.8 21-.8 46 0 28.1-.4 45.4-1 45.4-2.6 0-3.9-14.3-6.1-68.5-.6-15.4-1.5-29-2-30.3-1.5-3.9-6.9-11.2-8.3-11.2-2.6 0-7.6-5.7-7.6-8.5 0-2.1-1.6-4.3-6.7-9.2-9.5-9.1-9.4-9.3-11.3 25.7-.6 10.2-1.5 23.4-2 29.3-1.1 11.9-.6 14 5.2 19.4l2.4 2.2 2.3-11.7c1.3-6.4 3.4-15.1 4.7-19.2 1.3-4.1 2.4-8.5 2.4-9.8 0-4.1 1.8-2.3 3 3 2.1 9.7 2.2 13.5.9 18.9-1 4-1.4 14.5-1.4 39.9 0 19-.4 39.4-.8 45.5-.6 7.7-.5 10.5.2 9.4 1.4-2.2 6.1-32.7 7-45.9.8-10.6 1.6-14 3.2-14 1.7 0 1.5 13.4-.7 41.5-.8 10.4-1.6 28.2-1.7 39.5-.2 19.9-.1 20.9 3.1 35.5 1.8 8.2 4.2 16.9 5.4 19.3 2.9 5.9 9.9 11.7 17 14.3 3.2 1.2 6.1 2.6 6.4 3 1.2 2 4.6.6 11.9-5.1 6.9-5.3 10.5-7.2 10.5-5.4 0 1.3-2.5 5.2-5.6 8.7-1.9 2-3.4 4.2-3.4 4.8 0 1.4 3 3.8 4.8 3.9 3.3 0 35.9-23.9 58.2-42.8 16.6-14 51.2-48.4 65.8-65.2 32.8-38.1 61.9-82.5 86.2-131.5 15.1-30.5 23.7-50.8 32.6-77 22.6-66.6 31.7-117.8 34-191.5 1.2-38.6-3.3-88.7-11.7-131.5-16.6-84.5-57.3-173.7-110.4-242-21.2-27.3-54.3-62-78.4-82.2-59.2-49.6-114-79.3-180.6-98.2-8.7-2.4-68.8-14.1-72.7-14.1-1.4 0 3.6 3.9 12.6 10 11.5 7.7 26.8 14.7 34.1 15.5 3.6.4 7.4 1.6 9.6 3 2 1.3 8.1 4.2 13.6 6.5 9.5 3.9 10.3 4.1 14.4 3 2.4-.7 6.6-2.3 9.3-3.7 3.7-1.9 5.7-2.3 8.3-1.8 5.3 1 3.9 3.5-4.4 7.5-4 1.9-7.3 4-7.3 4.6 0 .6 1.6 2.9 3.5 5.1 3.5 4.1 4.4 6.3 2.5 6.3-.5 0-6-3.2-12.2-7.1-11.9-7.4-14.9-8.6-37.3-13.5-13.1-2.8-18.8-5.5-33.5-15.5-4.7-3.2-12.7-9.5-17.8-14l-9.4-8.1-12.1-1.9c-15.3-2.4-16.3-2.4-14.7-.4zM927.2 228c4.6 4.9 5.3 8.2 1.1 5.2-1.6-1.1-4.4-3.6-6.2-5.6-3.4-3.5-3.4-3.6-1.1-3.6 1.4 0 3.8 1.6 6.2 4zm5.7 41.3c3.5 1.8 7.1 4.3 8 5.6l1.5 2.4-3.9-.7c-2.2-.4-5.1-1.5-6.5-2.5-1.4-1-4.6-2.7-7.2-3.9-2.9-1.3-4.8-2.7-4.8-3.7 0-2.3 4.6-1.3 12.9 2.8zm18.1 12.3c0 1.7-2.2 1.4-2.8-.4-.2-.7.3-1.2 1.2-1.2.9 0 1.6.7 1.6 1.6zm31.3 14.5c.8 2.8-1.8 2.4-3.1-.6-.7-1.4-1.2-3.1-1.2-3.7 0-1.7 3.7 2 4.3 4.3zm2.7 54.2c0 .7-.5 1.8-1.2 2.5-.9.9-.8 1.2.8 1.2 1.8.1 1.8.2-.3 1.9-1.3 1.1-2.3 2.4-2.3 3 0 1.6-3.6 1.3-5-.4-1.3-1.6-1-2.2 3.4-7.3 2.1-2.4 4.6-2.9 4.6-.9zm1.3 56.9c3.4 2.4 3.5 5.3.2 7.4-5.8 3.8-13.7-4.3-8.9-9.1 1.8-1.8 4.4-1.3 8.7 1.7zm-123.7 71.3c-.3 1.3-2.6 4.5-5.1 7.1-2.5 2.5-4.5 4.9-4.5 5.4 0 .4-.7 1-1.5 1.4-2.2.8-1.9-.3 1.6-6.8 1.8-3.3 4.5-6.6 6.3-7.7 3.9-2.4 3.9-2.4 3.2.6zm222.4 23.4c0 1.7-1.8 3.1-4.1 3.1-1 0-1.2-3.3-.2-4.3 1.4-1.5 4.3-.7 4.3 1.2zm34.8 36.3c1.9 1.9 1.5 5.8-.6 5.8-2.5 0-5.6-3.5-4.9-5.5.8-1.8 3.8-2 5.5-.3zM1103 726c-1.3 2.5-5 4.6-5 2.9 0-1.7 3-4.9 4.7-4.9 1.1 0 1.1.5.3 2zm-209 55c-1.1 2-3 2.8-3 1.2 0-1.1 2.2-3.2 3.2-3.2.5 0 .4.9-.2 2zm177 15c5.4 2.9 7.2 12 3.2 16.3-1.3 1.4-4.1 3.2-6.3 4.2-11 5-21.4-7.5-14.6-17.6 1.2-1.8 3.3-3.6 4.7-4.1 3.1-.9 10.4-.2 13 1.2zm-145.7 34.7c.5 2.6.2 4.2-.7 3.2-.9-1.1-1.5-5.9-.7-5.9.5 0 1.1 1.2 1.4 2.7zm147.2 5.3c1.1 1.2 2.3 5.1 3.1 9.8.7 4.2 1.5 8.7 1.9 9.8.5 1.7.2 2.3-1.8 2.8-1.4.3-3.5 2.2-4.8 4.2-1.9 3.2-2.1 4.1-1.1 6.8 1.9 5.1 1.5 7.4-1.5 9-2 1-3.3 1.1-5 .3-3.2-1.4-3.6-3.8-1.9-9.6.8-2.7 1.2-5.2.8-5.5-.3-.4-3.1-.4-6.2 0-4.3.5-5.9.3-6.8-.9-1.7-2.1 1-4.7 4.8-4.7s4.6-1.8 5.2-11.2c.6-9.9 2.4-12.8 7.7-12.8 2.5 0 4.4.7 5.6 2zm-144.2 3.7c.6 3.6.3 5.2-.8 4.1-1.1-1.1-1.8-7.8-.8-7.8.6 0 1.3 1.7 1.6 3.7zm5.4 25c-.3 1-.5.2-.5-1.7s.2-2.7.5-1.8c.2 1 .2 2.6 0 3.5zm132.7 25.9c1.8.7 2.2 6.9.5 8-.6.3-.9 1.7-.6 3.1.2 1.3-.1 3-.7 3.6-.7.7-1.8 2.7-2.5 4.4-1.6 4-3.9 4.3-4.7.5-.3-1.5-.8-3.3-1-4-.2-.7.3-2.7 1.2-4.3 1.1-2.2 1.2-3.4.4-4.3-1-1.4-.5-4 1.3-6.4 1-1.3 3.6-1.6 6.1-.6zm-3.6 30c.2 2.8-.2 4.7-1.3 5.8-2.5 2.4-3.3 2-4.5-2.4-1.5-5.6-.6-8.2 2.8-7.8 2.4.3 2.7.8 3 4.4zM988 937.5c3.3 2.7 4.6 3.3 5.6 2.4 2-1.7 3.4-.2 3.4 3.9 0 2.7-.8 4.4-3.2 6.9-5.4 5.6-8.8 4.1-13.4-5.8-2.9-6.1-3-8.4-.6-9.8 2.7-1.6 3.7-1.3 8.2 2.4zm-30 51.7c0 1.9-.2 2-1 .8-1.3-1.9-1.3-3 0-3 .6 0 1 1 1 2.2zm-27.8 13.6c.5 3.6-.4 7.4-2 8-.8.2-1.2-.9-1.2-3.6 0-6.8 2.4-10 3.2-4.4zm9.8 64.4c0 5.2-1.7 6.9-2.5 2.5-.4-1.9-.4-4 0-4.6 1.3-2.1 2.5-1 2.5 2.1zm50.4 92.4c1 2.6.7 3.3-1.9 5-2 1.3-2.8 1.4-4 .4-2-1.7-1.9-2.6.5-5s4.6-2.6 5.4-.4zM658.5 159c.3.5 1.3 1 2.1 1s1.2-.5.9-1c-.3-.6-1.3-1-2.1-1s-1.2.4-.9 1zM412 163c-.8.5-1 1-.5 1 .6 0 1.7-.5 2.5-1s1.1-1 .5-1c-.5 0-1.7.5-2.5 1zM400 168.5c-2.5 1.3-4 2.4-3.5 2.4.6 0 3-1.1 5.5-2.4 2.5-1.3 4.1-2.4 3.5-2.4-.5 0-3 1.1-5.5 2.4zM520.5 184c-1.3.6-1.5.9-.5.9.8 0 2.2-.4 3-.9 1.8-1.2.2-1.2-2.5 0zM757.5 184.6c2.3 1.8 11.1 6.4 12.1 6.4 1.7 0-3.2-4.1-7.2-5.9-5.2-2.5-7.8-2.7-4.9-.5zM266.5 191.6l-3 2.6 3.3-2.2c1.7-1.2 3.2-2.3 3.2-2.6 0-.7-.4-.5-3.5 2.2zM260.9 195.7c-1.3 1.6-1.2 1.7.4.4.9-.7 1.7-1.5 1.7-1.7 0-.8-.8-.3-2.1 1.3zM256.9 198.7c-1.3 1.6-1.2 1.7.4.4.9-.7 1.7-1.5 1.7-1.7 0-.8-.8-.3-2.1 1.3zM252.9 201.7c-1.3 1.6-1.2 1.7.4.4.9-.7 1.7-1.5 1.7-1.7 0-.8-.8-.3-2.1 1.3zM248.9 204.7c-1.3 1.6-1.2 1.7.4.4.9-.7 1.7-1.5 1.7-1.7 0-.8-.8-.3-2.1 1.3zM1164.4 216.4c-10.2 2.7-22.6 8.3-32.4 14.7-10 6.5-22 19.2-26.1 27.4-3.1 6.3-3.4 7.8-3.4 15.5 0 7.6.4 9.3 3.2 15 3.3 6.7 15.1 20.5 23.2 27.3 10.5 8.6 25.2 10.2 38.1 3.9 16.2-7.8 33.9-28.3 42.3-49 8.2-20.1 7.6-36.9-1.8-48-7.3-8.7-25.2-11.6-43.1-6.8zm24.1 20.1c3.9 1.9 5.5 5.1 5.5 10.9 0 9.5-5.6 22.3-14.8 33.7-15.9 19.7-28.5 22.5-41.8 9.1-10.9-10.8-12.1-20.5-4-31.6 3.1-4.1 17.1-14.5 24.4-17.9 12-5.6 24.1-7.3 30.7-4.2z"/><path d="M827 223.4c0 .2 2 1.1 4.5 1.9 4.8 1.7 6.2.8 2-1.1-2.5-1.2-6.5-1.6-6.5-.8zM744 289c5.8 3.8 7.5 3.8 3.2 0-1.8-1.7-4.2-3-5.5-3-1.8 0-1.3.6 2.3 3zM1253.8 296.4c-21.8 7.7-89.8 51.8-89.8 58.2 0 1.9 10.7 18.4 11.9 18.4.5 0 5.8-4.3 11.8-9.7 13.6-12.1 15.5-13.3 21.9-13.3 6.3 0 15 2.5 16.3 4.7 3.1 5.6-10.5 24-26.6 35.9-3.9 3-7.5 5.9-7.8 6.4-.8 1.3 11.3 21 12.9 21 2.4 0 16.4-11.9 22.3-19 6.6-7.9 14.5-22 18.3-33 1.3-3.6 2.7-6.9 3.1-7.3.4-.5 6.5-.3 13.7.3 15 1.4 26.1.4 34.2-3.1 2.8-1.2 5-2.4 5-2.6 0-.9-9.1-15.1-10.3-16.1-.8-.7-3-.6-6.6.4-10 2.5-25.5 3.6-37.6 2.4-20.1-1.8-22-4-10.1-11.5 8.3-5.2 20.1-10.4 30.6-13.6 4.3-1.3 7-2.6 7-3.5 0-1.6-8.7-15.5-10.4-16.6-1.6-1.1-2.5-1-9.8 1.6zM120.9 336.7c-1.3 1.6-1.2 1.7.4.4 1.6-1.3 2.1-2.1 1.3-2.1-.2 0-1 .8-1.7 1.7zM845 344.7c.1 2.4 10.8 11.3 13.7 11.3 2.5 0 1.3-2.4-3.8-7.2-3.2-3-6-4.8-7.5-4.8-1.3 0-2.4.3-2.4.7zM1312 391.2c-13.8 2.9-40.1 12.7-55 20.4-30.9 16-41.4 37.2-30.1 60.9 4.1 8.6 9.1 13.9 16.9 17.7 6.4 3.2 7.1 3.3 18.7 3.3 9.4 0 13.8-.5 20.5-2.3 22-6 62.6-25.9 66-32.3.8-1.5.3-3.8-2.6-10.4-2-4.7-4-8.8-4.5-9-.4-.3-4.8 2.4-9.6 6-9.8 7.3-34.3 19.9-46.6 24-19.4 6.4-31.6 3.7-36.8-8.1-2.4-5.3-1.5-10.5 2.8-16.6 8.8-12.9 38.7-26.4 69.2-31.4 4.6-.7 8.6-1.6 8.9-1.9.5-.5-6.5-18.1-8.1-20.3-1.1-1.4-3.3-1.4-9.7 0zM773.4 447c-4.5.9-28.1 9.8-30.2 11.3-3.2 2.5-12.3 17.1-12 19.4l.3 2.4 3.7-3.1c2.1-1.7 9.7-6.2 17-10.1 7.3-3.9 14.9-8.5 16.8-10.3 1.9-1.8 5.2-4.5 7.3-6 2-1.5 3.5-3.2 3.2-3.7-.4-.5-.9-.9-1.3-.8-.4.1-2.5.5-4.8.9zM927.8 454.7c-11.9 14.4-13.1 17-8.4 18.6 2.1.7 3.5.6 4.8-.2 1.5-.9 2-.8 2.4.4.3.8 5.9 4.2 12.3 7.5 14 7.3 21.1 12.7 28.6 21.7 5.3 6.4 5.6 7.1 5 10.8-.5 3.6-.1 4.8 3.2 9.8 2.1 3.1 4.4 5.7 5.1 5.7.7 0 1.7 1.2 2.2 2.6.6 1.4 3 5.7 5.5 9.4 5.7 9 7.4 12.2 9.2 18.2 1.5 5.2 1.1 8-.6 3.6-.5-1.4-2.2-3.6-3.8-5-1.5-1.3-4-4.6-5.4-7.3-2.8-5.3-4.9-6.9-4.9-3.6 0 1.2-.6 2.1-1.5 2.1-.8 0-1.5-.6-1.5-1.3 0-.7-1.1-2.9-2.5-4.9-1.4-2-2.5-4.7-2.5-6-.1-1.5-1.5-3.4-4.3-5.5-8.5-6.4-10-5-4.5 4.6 1.7 3.1 5.2 11 7.8 17.6 2.6 6.6 5.1 12.8 5.5 13.7.5 1.3.3 1.8-.8 1.8-.8 0-1.7.6-2 1.2-.6 2-4.1-.3-12.7-8.2-4.1-3.8-8.6-7.5-10-8.2-1.4-.7-4.1-2.5-6.1-4s-4.7-2.8-5.8-2.8c-1.2 0-3.6-.7-5.2-1.6-1.7-.8-6.8-1.7-11.7-2l-8.7-.6 2.5 2.1c1.4 1.1 6.9 3.9 12.3 6.3 7.8 3.3 11.5 5.6 17.5 11 14.3 12.8 27.4 36.7 22 40.2-1.4.8-2.3.5-4.8-1.9-1.6-1.6-3-2.6-3-2.2 0 .4 1.5 4.6 3.4 9.4 1.9 4.9 4.2 13.5 5.2 19.3 2.1 12.7 2.5 30.3.7 32.1-2.7 2.7-3.7-.8-4.3-14.4-.6-11.8-2-18.7-3.9-18.7-1 0-4 15.1-4.5 22.8-.5 7.8-2.4 12-3.7 8.5-.4-1-.8-4.1-.8-6.8-.2-7.1-1-8-5.3-6.2-2 .8-5.4 3.2-7.7 5.2-3.9 3.5-4.1 4-4.1 9.4 0 3.1-.5 7.4-1.1 9.6-2 7.2-1.7 9.7 1.3 11.4 2.3 1.3 3.4 1.3 8 .3 2.9-.7 6.9-1.5 8.9-1.7 1.9-.2 7.9-2.1 13.2-4.1 8.5-3.3 9.9-4.2 11.5-7.3 1.1-2 3.3-5.1 5-6.9 3.8-4 8.4-15.8 11.2-28.3 3.6-16.4 7.1-42.9 7.1-53.9 0-5.8.1-13.7.1-17.5.1-5.4-.9-10.5-4.1-22-4.8-17.3-8.4-25.6-13.4-31.2-2.1-2.3-4.8-7.1-6.5-11.9-1.6-4.3-5.7-11.9-9-16.8-4.8-7.2-8.5-11.1-19.3-20.3-7.3-6.2-14-11.3-14.9-11.3-.9 0-4.6 3.5-8.2 7.7zm45.8 152.8c1.5 2.3 1.2 4.5-.6 4.5-1.5 0-4.3-4.8-3.5-6 1-1.6 2.3-1.2 4.1 1.5zM1166.1 481.2c.1 1.8.5 4.6.9 6.3.6 2.4.8 1.7.9-3.3 0-3.5-.3-6.2-.9-6.2-.5 0-.9 1.5-.9 3.2zM748 487.9c-4.6 1.5-17.5 8.3-20.7 11-1.7 1.4-4.3 3.4-5.7 4.4-3.2 2.2-7.6 10.7-10.5 20.1-2.2 7.2-2.9 20-1.1 19.4.6-.2 2.4-4.1 4-8.7 3.4-9.9 4-10.7 7-9.1 2.6 1.4 4.6-.2 11.2-8.7 2.2-2.9 7.8-8.2 12.4-11.9 7.5-6 16.2-15 15.3-15.9-1-.9-9.7-1.3-11.9-.6zM891.2 500.6c-10.3 10.6-21.8 25.8-28 37-10.7 19.3-17.2 33.7-15.8 35.1 1.2 1.2 10.8-15.7 16.1-28.6 3.1-7.5 6.6-14.5 7.7-15.6l1.9-2 1.5 2c2.2 2.8 1.1 9.5-3.7 23.9-2.2 6.5-3.8 12.1-3.5 12.4 1.6 1.6 7.6-7.3 10.3-15.4.8-2.7 2.1-5.6 2.8-6.4.7-.8 1.6-3.1 2-5 .4-1.9 2.5-7.7 4.6-12.9 2.2-5.3 3.9-10.5 3.9-11.7 0-1.2 2.1-6.1 4.6-10.9 2.5-4.8 4.3-8.9 4-9.3-.3-.3-4.1 3-8.4 7.4zM1112 495.9c0 1.8 1.8 2.1 3 .6 1-1.3.9-1.5-.9-1.5-1.1 0-2.1.4-2.1.9zM1334.7 505c-11.2 2.8-19.1 11-22.6 23.5-.6 2.2-1.8 9.9-2.6 17.1-1.5 14.6-3.4 20.3-7.7 23.9-9.7 8.2-22.4-3.2-23.6-21.1-.8-12.3 3.6-19.9 15.4-26.5 3-1.7 5.4-3.3 5.4-3.5 0-.2-1.5-1.1-3.2-2-4.8-2.5-15-2.2-21.5.6-18.6 8-24.3 34.2-12.6 57.4 3.8 7.4 11.7 14.9 18.8 17.6 17.6 6.7 36.7-.8 43.9-17.3 3.2-7.2 4.3-12.4 5.6-25.2.6-6.1 1.8-13.1 2.6-15.7 4.5-13.7 19.2-12.8 24 1.4 2.2 6.8 1.5 13.3-2.6 21.4-3.3 6.4-3.3 6.5-1.4 8.4 2.7 2.7 14.9 5.8 17.2 4.4 5.1-3.1 8.3-18 6.4-30.7-2.9-20.2-15-33.4-31.4-34.3-3.5-.2-8 .1-10.1.6zM1035 534c-1.7 1.7-6 9.2-6 10.5 0 1.1 7.6-2.6 9.3-4.6 2.1-2.7 2.3-7.9.2-7.9-.8 0-2.4.9-3.5 2z"/><path d="M866.1 548.6c-1.2 3.1-2 6.1-1.8 6.7.2.6 1.4-1.7 2.6-5.2 1.3-3.4 2.1-6.4 1.8-6.7-.3-.3-1.5 2-2.6 5.2zM1063.7 567.1c-1.8 5.5-2 9.2-.7 12.4.7 1.8.9 1.8 2-1 1.6-3.9 2.6-16.5 1.3-16.5-.6 0-1.7 2.3-2.6 5.1zM1024.1 590.1c-2.8 6.5-3.8 17.2-2.1 22.5 1.2 3.6 1.4 3.7 2.1 1.5 3.6-9.7 5.6-29.1 3-29.1-.5 0-1.8 2.3-3 5.1zM925.5 594.2c.4 1.3 1.8 3.7 3 5.4 1.3 1.6 3.7 6.1 5.4 9.8l3.1 6.8 3.2-2.1c1.8-1.2 4.3-2.7 5.6-3.3 1.2-.6 2.2-1.7 2.2-2.3 0-1.6-11.8-13.8-14.7-15.4-1.2-.6-3.6-1.1-5.3-1.1-2.8 0-3.1.2-2.5 2.2zM712 597.1c0 2.4 1.2 9.2 2.7 15l2.6 10.6 6.1 2.2c3.4 1.2 7.8 2.1 9.9 2.1h3.9l-6.6-5.6c-3.6-3.1-6.6-6.1-6.6-6.7 0-1.9-8.7-19.2-10.3-20.6-1.5-1.2-1.7-.9-1.7 3zM1059.1 604c-2.6 10.1-3.7 11.9-16.9 27l-9.2 10.4.6 5.1c.9 7.1 2 8.9 4.3 7.3 10.3-7.4 16.5-16.5 21-31.1 2.5-8.2 4.4-22.7 3.3-25.6-.6-1.6-1.3-.1-3.1 6.9zM1327 613.6c-24 1.9-49.2 5.4-52.8 7.3-1.6.9-1.7 1.9-.7 13 .6 6.6 1.3 12.3 1.7 12.6.3.4 2.4-.3 4.5-1.4 5.7-2.8 15.7-5.9 23.8-7.1 10.1-1.6 15.5-.1 21.6 6 5.5 5.5 8.9 14.6 8.9 23.9 0 6.8-1.6 9.5-6.8 11.2-5.7 1.9-21.3 1.4-33.2-1.1-5.8-1.3-11.8-2.5-13.4-2.8l-2.9-.5.7 12.4c.4 6.8 1.2 12.8 1.7 13.4 1.5 1.5 30.9.9 47.6-.9 15-1.6 35.1-5.4 46.8-8.7 8.6-2.4 19.1-6.7 20.4-8.3 1.2-1.4-.8-23.6-2.2-23.6-.5 0-4.9 2.3-9.8 5.1-14.3 8.3-26.1 11.8-28.7 8.6-.6-.6-1.3-4.6-1.7-8.7-.8-9.2-3-18.4-5-21.3-2.4-3.5-1.9-6.3 1.6-7.7 4.4-1.9 19.3-.7 31.7 2.5 5.7 1.5 10.6 2.5 10.8 2.2.2-.2 0-4.6-.6-9.8-.5-5.2-1-10.4-1-11.6 0-3.8-5.2-4.5-33-4.8-14-.1-27.5-.1-30 .1zM1013.1 620.1c-1.7 2.7-2.9 7.6-4.7 19.4-.5 3-.5 3 3.7-1.5 7.2-7.9 9.4-15.3 5.7-19.7-1.6-2-2.7-1.6-4.7 1.8zM1194 650c.1 6.9-.1 17-.5 22.5-.7 9.9.2 15.5 2.4 15.5 1 0 11.1-10 11.1-11 0-.3-1.4-1.3-3-2.2-4.3-2.5-5.7-6.6-7.5-22.3-.9-7.6-1.8-14.2-2.1-14.5-.3-.3-.5 5.1-.4 12zM736 651.3c0 3.5.6 4.9 2.9 7.1l2.9 2.8 1.6-2.3c2.6-3.8 2-6.6-2.1-9.4-2.1-1.4-4.1-2.5-4.5-2.5-.5 0-.8 1.9-.8 4.3zM1024.5 651.7c-5.7 6.5-18.6 15.8-31.8 23.1-10.2 5.6-12.2 7.1-17.7 13.8-4.9 6-6 7.8-4.9 8.5.8.5 2.1.9 3 .9 3.4 0 13.5-2.3 16.4-3.7 3.7-1.9 8.5-6.3 8.5-7.9 0-1.8 7.3-8.1 20.8-17.8 8.5-6.1 12.4-9.6 12.9-11.4.7-2.9-.7-9.4-2.2-9.8-.5-.1-2.8 1.8-5 4.3zM836.4 660.5C835 664 840.3 678 843 678c.9 0 1.6-7 1-11-.3-2.4-4.4-8-5.8-8-.7 0-1.5.7-1.8 1.5zM754.7 664.7c-1.1 1-.8 4.3.3 4.3.6 0 1-1.1 1-2.5 0-2.6-.2-2.9-1.3-1.8zM826.4 680c-2.6 5.5-5 10-5.4 10-1.1 0-2.7-2.3-3.2-4.5-.8-3.9-3.8 4.2-4.8 12.8-3.8 34.7-4.9 55.4-5.1 97.7-.1 19.6.3 31.9 1 34.5 1.3 4.9 4.8 10.8 6 10.1.4-.3 1.1-2.9 1.4-5.8.4-2.8 1.6-9.5 2.7-14.7 1-5.3 2.2-11.3 2.5-13.4.4-2.3 1.1-3.7 2-3.7 1.7 0 2-3.5.5-4.5-1.5-.9-1.2-2.5.5-2.5 1 0 1.5-1 1.5-3s-.5-3-1.5-3c-1.6 0-2.1-3.5-.5-4.5.5-.3.7-1.2.3-2-.3-.9.1-1.5 1-1.5 2 0 2.4-1.5 3.7-14.4.9-8.8 1.5-11.4 3.5-14 3-4 3.3-11.3 2.2-50.6-.8-28.9-1.2-33-2.8-33-.5 0-3 4.5-5.5 10zM926.8 673c-.4 1.4-.8 3.6-.8 5 .1 2.2.2 2.3 1.1.7.6-.9.9-3.2.7-5-.3-3.1-.3-3.1-1-.7zM1072 675.3c-1.9 1.2-4.6 3.3-6 4.5-3.8 3.5-21.3 13.3-22.7 12.7-4.7-1.9-4.6-1.9-3.3.4 1.3 2.6 3.5 2.4 16.8-.9 8.2-2.1 9.5-3 15.8-11.3 6.1-8.1 5.9-9.6-.6-5.4zM1097.4 682.5c-3.1 2.5-6.3 4.5-7 4.5-1.9 0-6.4 2.2-6.4 3.1 0 1.7 7.2 2.7 13.4 1.8 8.7-1.2 9.6-1.7 9.6-4.9 0-3.3-1.9-9-3-9-.4 0-3.4 2-6.6 4.5zM801.9 688.8c-2.9 2.6-3.3 3.5-3.4 8.8-.2 4.5-.7 6.1-2.1 6.9-3.9 2.1-11 10.2-14.1 16-2.3 4.3-3.3 8-3.8 13.2-.8 7.8-.1 12.8 1.6 11.7 1.2-.7 2.9 1.3 2.9 3.4 0 .9-.7 1.1-2 .7-2.2-.7-2.4-.2-1.1 2.4.5.9 2.1 7.1 3.6 13.6 1.5 6.6 3.5 13.3 4.5 15 1 1.6 3.4 7.5 5.4 13 7 20 7.9 22 10 24.3l2.2 2.2-.9-9.2c-1.5-15-1.3-83 .2-104.6.8-10.6 1.1-19.5.8-19.8-.3-.3-2 .8-3.8 2.4zM782 740.6c0 1.4-1.2 1.9-2.3.8-.9-.9.4-3.5 1.4-2.8.5.3.9 1.2.9 2zm4 21c0 1.9-.4 3.4-1 3.4-.5 0-1-1.8-1-4.1 0-2.4.4-3.8 1-3.4.6.3 1 2.2 1 4.1zM943.5 688.4c-11.9 2.1-12 2.1-13.8 5.6l-1.7 3.5 3.7 3.2c2.8 2.3 4.1 2.9 5 2.1.7-.6 1.3-1.6 1.3-2.3 0-.7 3.6-3.2 8-5.4 4.3-2.3 9.1-5.2 10.6-6.6 3.3-3.1 3.3-3.1-13.1-.1zM1021 691c-10.8 4.5-21.8 9.9-23.8 11.7-.7.7-2.3 1.3-3.6 1.3-3.6 0-21.6 12.6-21.6 15.1 0 .4 1.9 1 4.3 1.3 3.4.5 6.3 0 13.9-2.7 5.2-1.8 11.9-4.8 14.9-6.6 9.5-5.8 29.6-24.2 26.3-24.1-.5 0-5.2 1.8-10.4 4zM1129.6 690.5c-2.4 2.4-2 7.1.6 8.9 4.1 2.9 4.7 2.1 3.1-4.2-.8-3.1-1.6-5.8-1.8-6-.1-.2-1 .4-1.9 1.3zM923.3 691.9c-1.2 3-.4 8.3 1.1 7.8 1.5-.5 2-6.2.7-8.4-.9-1.6-1-1.6-1.8.6zM838.6 695.6c-.3.9-.2 8.7.4 17.3.6 8.6.9 26.8.8 40.6-.2 13.7.1 27.2.6 30l.9 5 1.9-6.5c1.4-4.8 2.1-11.9 2.8-27.7 1-22.6 1.2-20.9-4.4-51.2-1.7-9.2-2-10-3-7.5zM1169.5 698.7c4.1 18.5 8.3 31.1 11.1 33.4 3.9 3.2 2-4.6-6.2-25.9-3.6-9.1-6.1-13-4.9-7.5zM1049 698.5c-2.5.7-7.6 2.5-11.3 3.9-7 2.7-8.7 2.7-8.7-.1 0-1-.6-1.3-1.6-.9-.9.3-1.7.6-1.9.6-.2 0-3 3.1-6.3 6.9-4.2 4.8-6.3 6.6-7.3 6.1-1.6-1.1-4.1.2-9.8 4.9-2.5 2-7.8 5.5-11.9 7.7-4.1 2.3-7.1 4.4-6.6 4.6 3 1.8 20.9 4.7 31.9 5.2 15.2.8 36.8 3.7 48 6.6 4.3 1.1 8.4 2 9.1 2 3.2 0 22.7-26.3 29-39.2 2.3-4.7 2.6-6 1.5-7-1.6-1.6-27.3-1.5-31.5.2-4.8 1.8-23.6 16-30.1 22.7-7.7 7.9-15.5 13.2-15.5 10.5 0-1.4 10.6-11.9 12.8-12.6 1.2-.4 2.9-2.3 3.7-4.2.8-1.9 4.8-6.7 8.9-10.6 4.2-3.9 7.3-7.5 7-8-.7-1.1-4.1-.9-9.4.7zM961.6 705.4c.4.9-1 1.6-4.8 2.4-7.5 1.5-10.8 2.9-10.8 4.6 0 1.8.7 2.4 7.8 7.1 4.5 3.1 5.5 3.4 7.5 2.4 5.4-2.9 15.7-13.7 15.7-16.6 0-1.1-.7-1-3.7.3-2.1.9-5 1.9-6.5 2.2-2.3.3-2.8.1-2.8-1.7 0-1.2-.6-2.1-1.5-2.1-.8 0-1.2.6-.9 1.4zM1283.7 727.9c-2.1.4-4.2 1.2-4.6 1.7-.5.5-1.2 6.2-1.6 12.6l-.6 11.8h2.3c1.3 0 6.6-.7 11.8-1.6 13-2.1 48-3 60.6-1.5 10.8 1.3 24.1 3.9 34.7 6.9 6.6 1.9 6.8 1.9 7.8.1.5-1.1.8-6.3.7-11.7l-.3-9.7-3.5-1.7c-4.2-2-17.1-4.3-33-5.8-14.4-1.4-69.2-2.2-74.3-1.1z"/><path d="M832.2 763c0 1.9.2 2.7.5 1.7.2-.9.2-2.5 0-3.5-.3-.9-.5-.1-.5 1.8zM1277.3 779.2c-1.8 2.3-4.2 18.2-2.9 19 .6.4 7.5.8 15.4.8 16 0 27.3 1.1 47.6 4.5 18.8 3.1 20.7 5.4 9.5 11.1-16.3 8.2-44.8 15.5-67.5 17.4-5.8.4-11 1.2-11.5 1.7-.9.9-3.9 16-3.9 19.5 0 4.1 15.5 8.6 49 14.3 35.7 6.1 58.7 8 64.4 5.4 2.1-1 2.6-2.2 3.6-8.3.7-3.9 1.3-7.9 1.3-8.9.2-1.6-1.5-1.8-22.8-2.1-20-.3-26.7-.8-37.2-3.1-5-1.1-2.1-3.3 9.9-7.4 27.5-9.5 50.1-19.6 54.8-24.6 2.2-2.4 5.3-14.6 4.3-17.2-1.4-3.7-19.3-9.4-45.7-14.8-35.4-7.1-65.9-10.3-68.3-7.3zM771 801.5c0 2.4 4.3 16.2 5.9 19 .9 1.6 2.5 5.5 3.5 8.5.9 3 5.1 12.5 9.3 21 4.1 8.5 8.4 17.7 9.5 20.5 4.4 10.9 11.1 31.6 13.8 42.9 1.7 6.5 3.2 12.1 3.4 12.3.6.7 3.2-4.6 5.2-10.3 1.1-3.4 1.4-6.3.9-10.8-.7-5.5-1.4-7-7.5-15.3-8.5-11.6-34.9-61.1-35-65.7-.1-1.4-9-23.4-9-22.1zM842.1 802.6c0 1.1.3 1.4.6.6.3-.7.2-1.6-.1-1.9-.3-.4-.6.2-.5 1.3zM808.6 846.3c2.2 6.9 3.2 9.1 4.4 9.5 2.4.8-1.1-10.3-3.7-11.2-1.1-.5-1.3-.1-.7 1.7zM887.6 870.5c-.6 13.5-2.7 24.7-7.2 38.7-1.4 4.4-1.4 5.3.1 9.7 2.2 6.7 8.7 16.5 14.6 22.3 4.8 4.6 4.9 4.7 6.1 2.5 1.7-3 1.5-16.6-.2-17.7-.8-.5-1.1-1.8-.7-3.8.3-1.6.2-3.3-.3-3.8s-1.4-7.2-2-14.9c-1.4-18.3-2.6-24.7-6.5-36.9l-3.2-10.1-.7 14zM882.1 874.7c-.1 1.2-1.9 7.3-4.1 13.5-4.2 12-4.8 16.3-2.7 19.3 1.8 2.3 1.9 2 5-10 3.1-12.5 4-19.5 2.8-22.6-1-2.3-1-2.3-1-.2zM1257.3 882.2c-.6.7-2.4 5.4-4.1 10.5-2.2 6.8-2.7 9.4-1.9 10.1.7.5 7.5 1.9 15.2 3.2 17.4 2.8 20.8 4.1 24.4 9.4 3.5 5.1 6.5 13 5.8 15-2 5.1-27.9 6-44.9 1.6-4.8-1.2-9.4-2-10.2-1.7-1.5.6-8.9 21.4-8.1 22.8.3.4 4.7 1.7 9.8 3 17 4.1 35.9 2.9 54.6-3.6 4.1-1.4 8.2-2.5 9.1-2.5 1 0 4.2 3.7 7.9 9.4 3.4 5.1 8.8 12.2 12 15.7 6 6.5 15.1 12.5 17.6 11.6.7-.3 2.6-4.5 4.2-9.3l2.8-8.7-4-3.1c-11.6-9.1-22.1-20.8-29.9-33.6-5.6-9-6-12-1.6-12 6.3 0 29.3 10.8 39.7 18.6 1.7 1.3 3.6 2.4 4.2 2.4 1.3 0 7.3-18.3 6.6-20.1-.8-2.1-9-7.4-17-11-25.2-11.3-79.5-28.9-89.3-28.9-1.1 0-2.4.6-2.9 1.2zM830.9 895.7c-.8 2-.7 3.9.2 6.8 1.8 5.9 3.8 16.9 3.2 17.8-.3.4-1.1.3-1.8-.3-2.8-2.3-5.4 6.8-6.5 23.4-.5 6.7-1.6 14.6-2.4 17.6-.9 3-1.9 10.9-2.2 17.5-.7 11.8-3.6 24.9-6.9 30.1-1.7 2.6-12.3 31.8-16.5 45.4-5 16.2-10 37-10 41.6 0 7.1 5 9.2 11.7 4.8l2.2-1.4-3.4-7.2c-3.8-7.9-4.3-10.9-2.1-12.8.8-.6 2.3-3.1 3.2-5.6.9-2.4 2.2-4.4 2.9-4.4.7 0 1.2-1.7 1.2-4.5 0-4.8.9-6.8 2.2-4.6.7 1.1 1.3 1.1 3.2 0l2.4-1.4-3.2-.3c-1.8-.2-3.3-.6-3.3-1 .1-1.6 1.8-3.4 3.6-3.6 1.5-.2 2-1.3 2.2-4.9.2-2.6.7-4.7 1.3-4.7.5 0 .9-.7.9-1.6 0-1.1.6-1.3 1.9-.9 1.1.3 2.3 0 2.7-.7.4-.6.2-1.4-.4-1.6-2-.6-1.4-2.5 2.3-7 4.6-5.9 7.3-13.5 9-25.7.8-5.6 3.3-18.7 5.5-29.1 2.2-10.4 4-21 4-23.5s.5-8.3 1.1-12.9c1.1-7.7 1-8.5-1.1-13l-2.3-4.8 2.2-2.8c1.4-1.8 2.1-4.1 2.1-6.9 0-5.7-5.2-20.5-7.2-20.5-.5 0-1.3 1.2-1.9 2.7zM855 944.2c.1 2.7 2.9 8.2 3 5.7 0-3.1-1.2-7.9-2.1-7.9-.5 0-.9 1-.9 2.2zM884 946.9c0 .5.4 2.1 1 3.6.5 1.4 1.9 8.3 3.1 15.3 2.6 16.1 2.6 16.1 4.5 13.4.8-1.2 2.2-2.2 3-2.2.8 0 1.4-.9 1.4-2s-.4-2-.9-2c-1.6 0-2-4-.5-4.8 1.1-.6 1.3-1.4.5-3.3-.5-1.4-.7-3.7-.4-5.1.4-2.1-.4-3.6-3.8-7.3-4.5-4.9-7.9-7.3-7.9-5.6zM850.8 965.6c-1.2 1.8-2.8 12.9-2.8 18.6 0 3.4-.7 7.2-1.6 8.9-.8 1.7-1.4 4-1.2 5.2.3 2.1.4 2.1 3.5-.9 4.2-4.1 5.7-10 5-19.9-.6-8.2-1.9-13.6-2.9-11.9zM1225.3 973.1c-1.4 1.9-10.3 19.6-10.3 20.7 0 .5 4.7 1.1 10.4 1.4 17.5.8 24.6 6 24.6 18.3 0 9.6-5 23.2-10.5 28.8-6.2 6.1-15.8 1.5-28.3-13.9-4-4.9-7.7-9-8.2-9.2-.5-.2-3.3 4.7-6.4 10.9-5.1 10.6-5.4 11.5-4 14 4 7.9 39.1 25 60.4 29.5 11 2.3 29.8 2.4 39.3.1 7.4-1.8 16-5.8 19.5-9 5.3-4.9.7-25.1-10-42.6-12.1-20-31.4-36-55.5-45.9-9.7-3.9-19.1-5.3-21-3.1zm53.7 49.7c7.4 7.5 14.2 20.8 13.8 26.7-.3 3.6-.7 4.2-4.3 6-5.2 2.6-21.1 2.7-26.7.2-4.6-2-4.9-4.1-1.4-11.9 1.4-3 3.7-9.5 5.1-14.4 3.3-10.8 4.1-12.4 6.2-12.4 1 0 4.2 2.6 7.3 5.8zM1167.6 1075.1c-3.7 5.5-6.6 10.2-6.4 10.4.2.1 4.3 1.9 9.1 3.9 30.1 12.4 54.9 28.7 75.9 49.8 5.8 6 11.1 10.8 11.6 10.8 1.3 0 12.2-16.6 12.2-18.6 0-8.4-81.6-66.3-93.6-66.4-1.5 0-3.8 2.6-8.8 10.1zM838 1067.7c-2.4.9-6 4.5-6 6s1.6 1.3 12.3-1.8c4.2-1.2 6.7-2.5 6.4-3.2-.4-1.3-10-2-12.7-1zM836.5 1081.9c-6.2 1.5-12.5 6.2-8.2 6.1 2.1-.1 9.1-3.6 10.6-5.3.7-1 1.2-1.7 1-1.6-.2.1-1.7.4-3.4.8zM914.1 1137.6c0 1.1.3 1.4.6.6.3-.7.2-1.6-.1-1.9-.3-.4-.6.2-.5 1.3zM892.3 1151.3c-3.9 7.7-4.1 9.2-1.4 7.7 2.3-1.2 5.4-8.8 4.9-12-.2-1.8-1-.9-3.5 4.3zM880.6 1159.9c-.4.7-.5 1.5-.2 1.8.9.9 1.9-.4 1.4-1.8-.4-1.1-.6-1.1-1.2 0zM1015.5 1225.6c-1.6 1.4-2.1 2.1-1 1.5 3-1.4 6.1-4 5-4.1-.5 0-2.3 1.2-4 2.6zM1039.8 1227.5c-1.5 3.4.6 5.7 4 4.4 2.8-1.1 3.8-3.5 2.2-5.4-1.9-2.3-4.9-1.8-6.2 1zM951 1227.8c0 1.5 3.8 4.4 4.4 3.4.6-.9-.4-2-3.1-3.6-.7-.4-1.3-.3-1.3.2zM1002.6 1233.5c-7.3 3.7-9.8 4.1-14 2.5-2.9-1.1-4.5.4-2 1.8 1 .6 1.5 1.6 1.1 2.5-1.1 2.9-19.3 10.8-24.2 10.5-1.1 0-6.5 2.5-12 5.7-9.9 5.7-47.6 24.9-54.6 27.8l-3.7 1.5.9 4.9c2 10.5 3.6 13.6 9.2 17.5 5.3 3.6 5.5 3.7 11.3 2.8 13.8-2.1 22.3-4.3 27.9-7.2 7.2-3.7 17.2-12.3 17.9-15.4.8-3.2 8.7-8.5 18.2-12.3 7.3-2.9 12.7-5.8 25.9-13.8 2.2-1.3 4.8-2.6 5.8-3 2-.6 2.3-2.3.3-2.3-.7 0-5.8 1.1-11.2 2.5-7.9 2-31.2 6.5-33.6 6.5-.3 0-.8.9-1.1 2-.4 1.5-1.4 2-4.2 2h-3.6l.7-3.8c.3-2 1.3-4.2 2.1-4.7.9-.6 5.7-3.8 10.7-7.3 5-3.4 12.7-8 17.1-10.2 7.3-3.6 8.4-3.9 12-3 5.8 1.4 7.5 1.1 3.8-.5-4-1.7-4.2-3.9-.5-5.4 2.6-1.1 8.3-5.1 7.2-5-.3 0-3.6 1.5-7.4 3.4zM958.7 1233.8c-2.6 2.8-2 3.5 1.3 1.5 1.7-.9 3-2.1 3-2.5 0-1.5-2.7-.8-4.3 1zM1031.5 1236c-.8 1.2 2 2.4 3.5 1.5.5-.3 1-1 1-1.6 0-1.2-3.7-1.2-4.5.1z"/><path d="M969.6 1241.2c-2.5 2.9-4.6 5.6-4.6 6 0 .3 3.8-1.7 8.4-4.5 4.6-2.8 8.2-5.5 8-5.9-.3-.5-2-.8-3.9-.8-2.8 0-4.1.9-7.9 5.2zM1058.4 1243c-3.3 1.1-7.2 3.1-8.7 4.4-1.8 1.6-3.8 2.4-6.5 2.4-3.7.1-10.2 2.5-10.2 3.8 0 .3 2.1.2 4.8-.1 4.4-.6 4.6-.5 2.7 1-1.1.9-4.2 2.9-6.8 4.6-2.7 1.7-4.5 3.4-4.1 4 .4.8.9.8 1.7 0 1.4-1.4 4.4-1.4 5.2-.1.3.6-.4 1.4-1.7 1.9-1.3.6-1.7 1-.9 1 .7.1 1.1.7.8 1.5-.3.7 0 1.9.6 2.5 2 2-.4 2.5-14.6 3.1-14.1.6-14.3.6-25.4 5.3-11.8 4.9-19.4 9.1-30.8 16.8-6.8 4.5-12.7 9.9-11 9.9.4 0 9.5-4.5 20.2-10 21.9-11.4 31.1-14.5 40.4-13.4 7.2.8 15.5-1.3 27.8-7.2 12.4-5.9 19.4-8.4 22.1-7.7 2.8.7 6.5-2.8 8.6-8.4 1.3-3.4 2.3-4.5 4.4-5l2.8-.5-1.8-5c-1-2.8-2.4-5.4-3.1-5.9-2.3-1.4-10-.9-16.5 1.1zM1095.1 1243.9c-2.2 1.4-.6 4 2.1 3.4 3-.8 4.9-2.3 4.2-3.4-.7-1.1-4.5-1.1-6.3 0zM902.4 1270.3c.3 1 .6 2.3.6 2.8s.5.9 1 .9c1.4 0 1.2-1.3-.6-3.6-1.4-1.7-1.5-1.7-1-.1zM884.5 1292.2c.4 1.8 2.1 6.9 3.9 11.3 2.5 6.3 3.8 8.3 6.4 9.8 1.8 1.1 3.5 1.7 3.8 1.4.3-.3-1.5-3.5-4-7.2-2.6-3.6-5.4-9.3-6.4-12.6-1-3.4-2.3-5.9-3-5.9-1 0-1.2.9-.7 3.2zM935.5 1312c-1.3.6-1.5.9-.5.9.8 0 2.2-.4 3-.9 1.8-1.2.2-1.2-2.5 0zM908.6 1319.5c1.7.8 4.2 1.1 5.5.8 2.1-.6 2.2-.7.3-1.4-1-.4-3.5-.8-5.4-.7h-3.5l3.1 1.3z"/></svg>